#
# Compatibility version : brain5.0i
# File ID : FJ7516
# Representation ID : BP58266
# Build-up logic : FMA 3.2.1-inference part_of
# Concept ID : FMA62008
# English name : Hypothalamus
# Bounds(mm): (0.543300,-99.351000,1541.900000)-(2.271000,-96.694200,1544.460000)
# Volume(cm3): 0.005200
#
v 0.856054 -98.8842 1542.33
v 1.54949 -97.3377 1542.38
v 0.965565 -97.6131 1542.04
v 2.14911 -97.8129 1543.31
v 1.01901 -97.3299 1542.16
v 0.664577 -98.341 1542.29
v 0.82446 -97.4855 1542.24
v 1.96736 -98.7855 1543.81
v 2.02642 -97.407 1544.05
v 1.11212 -99.3176 1543.44
v 1.34748 -98.6929 1544.45
v 1.87643 -97.9625 1542.49
v 1.03746 -97.4645 1544.17
v 1.13787 -98.9534 1544.4
v 1.64138 -98.5918 1544.39
v 2.23897 -98.0751 1543.8
v 1.35108 -99.0591 1544.37
v 0.6736 -98.9098 1542.52
v 1.02202 -99.1377 1543.77
v 2.13201 -98.3685 1544.04
v 1.85079 -98.9178 1544.1
v 1.69954 -98.0631 1542.07
v 1.92915 -97.4408 1542.9
v 1.15046 -97.0243 1542.62
v 0.689053 -97.9056 1542.23
v 1.53971 -99.2409 1543.94
v 1.89938 -96.8913 1543.82
v 2.13653 -97.102 1543.53
v 1.34288 -98.2682 1541.95
v 0.949139 -98.2359 1544.27
v 1.46112 -99.2121 1542.85
v 0.853395 -97.7326 1543.91
v 1.00801 -98.8219 1544.23
v 1.17912 -98.1398 1544.41
v 1.11648 -97.0002 1543.88
v 1.49158 -97.6965 1542.04
v 0.565719 -98.5502 1542.48
v 1.68203 -98.0143 1544.34
v 1.81961 -96.7517 1543.59
v 1.19074 -99.1635 1542.32
v 1.24487 -97.8404 1541.93
v 2.06541 -98.3769 1543.35
v 0.560615 -98.1373 1542.43
v 1.72475 -98.8353 1542.68
v 1.01614 -97.0188 1543.46
v 1.47415 -98.9125 1542.16
v 0.649094 -97.7125 1542.49
v 1.36122 -97.1535 1542.43
v 1.37929 -97.6491 1544.31
v 0.913392 -97.3277 1543.81
v 1.29139 -97.055 1544.04
v 1.3549 -99.167 1542.46
v 1.36397 -99.3302 1543.46
v 2.24782 -97.4325 1543.65
v 1.61163 -98.9222 1544.33
v 1.35712 -99.2234 1544.2
v 1.26254 -99.2957 1543.98
v 1.61971 -96.7891 1543.8
v 1.20945 -97.4414 1542.05
v 1.69383 -99.1195 1543.61
v 2.23665 -97.5918 1543.9
v 1.31094 -96.7988 1543.78
v 1.06721 -98.5508 1544.45
v 1.86123 -97.0699 1543.99
v 0.764602 -98.8144 1543.29
v 1.48652 -96.8515 1543.02
v 1.47623 -96.7184 1543.36
v 0.813498 -97.338 1542.98
v 1.63505 -97.2404 1544.13
v 1.28626 -96.7657 1543.42
v 2.12143 -97.9386 1544.09
v 1.5662 -98.5594 1541.99
v 1.28788 -98.7581 1542.09
v 0.830351 -99.1371 1542.83
v 1.8905 -96.9281 1543.32
v 0.974153 -99.2355 1542.54
v 1.57116 -99.1366 1544.22
v 1.91952 -98.497 1544.25
v 1.55811 -98.14 1541.9
v 0.91098 -98.0362 1542.07
v 0.96266 -97.1184 1542.65
v 1.73816 -98.4218 1542.18
v 0.652131 -98.0761 1543.02
v 2.12493 -97.0991 1543.73
v 0.92638 -98.5171 1542.15
v 0.85144 -98.4946 1543.97
v 1.12429 -99.3303 1542.86
v 1.01901 -97.3299 1542.16
v 1.11212 -99.3176 1543.44
v 1.13787 -98.9534 1544.4
v 0.6736 -98.9098 1542.52
v 2.13653 -97.102 1543.53
v 0.565719 -98.5502 1542.48
v 1.19074 -99.1635 1542.32
v 1.47415 -98.9125 1542.16
v 1.26254 -99.2957 1543.98
v 1.20945 -97.4414 1542.05
v 1.31094 -96.7988 1543.78
v 1.31094 -96.7988 1543.78
v 1.06721 -98.5508 1544.45
v 1.06721 -98.5508 1544.45
v 1.5662 -98.5594 1541.99
v 0.974153 -99.2355 1542.54
v 0.974153 -99.2355 1542.54
v 1.55811 -98.14 1541.9
v 1.12429 -99.3303 1542.86
vn -0.540631 -0.392799 -0.743927
vn 0.615564 0.543124 -0.571049
vn -0.465174 0.235419 -0.853341
vn 0.953583 -0.0194642 -0.300502
vn 0.147416 0.804016 -0.576045
vn -0.696786 -0.146629 -0.702132
vn -0.802506 0.448393 -0.393609
vn 0.882167 -0.468302 -0.0497419
vn 0.563725 0.316365 0.762973
vn -0.658447 -0.74203 0.125857
vn 0.115388 -0.0705739 0.99081
vn 0.938372 0.0246301 -0.344748
vn -0.615699 0.332378 0.714451
vn -0.677397 -0.56166 0.475049
vn 0.350347 -0.0688496 0.934086
vn 0.987324 -0.155467 0.0319613
vn 0.134048 -0.488868 0.861997
vn -0.621208 -0.420316 -0.661389
vn -0.78094 -0.562383 0.271769
vn 0.891258 -0.255186 0.374887
vn 0.759579 -0.54755 0.35104
vn 0.825994 0.167788 -0.538127
vn 0.844803 0.297251 -0.444916
vn -0.16318 0.890875 -0.423928
vn -0.78797 0.116981 -0.604499
vn 0.460597 -0.875761 0.144545
vn 0.533093 0.652387 0.538706
vn 0.565613 0.824422 0.0202779
vn -0.236926 -0.179914 -0.954724
vn -0.837087 0.0626195 0.543474
vn 0.557536 -0.812118 -0.172099
vn -0.95132 0.140095 0.274524
vn -0.901849 -0.258639 0.346083
vn -0.202422 0.181571 0.962319
vn -0.666972 0.59504 0.448415
vn 0.546587 0.396902 -0.737368
vn -0.978553 -0.112338 0.172666
vn 0.293684 0.143078 0.945134
vn 0.462864 0.885978 -0.0282881
vn -0.31483 -0.485874 -0.815358
vn -0.101073 0.120013 -0.987614
vn 0.939611 -0.256464 -0.226623
vn -0.969399 0.0707472 -0.235076
vn 0.820369 -0.523395 -0.230332
vn -0.783504 0.616233 0.0798686
vn -0.0500236 -0.451901 -0.890664
vn -0.948119 0.300074 -0.105001
vn 0.317099 0.766321 -0.558749
vn -0.0240745 0.312788 0.949518
vn -0.902046 0.349898 0.252752
vn -0.171802 0.567571 0.8052
vn 0.422927 -0.854692 -0.301054
vn 0.266757 -0.963693 -0.0116775
vn 0.982908 0.144207 -0.114442
vn 0.453255 -0.322643 0.83094
vn -0.151163 -0.84833 0.507431
vn -0.70845 -0.612488 0.350653
vn 0.0463552 0.849943 0.524832
vn 0.0417584 0.806924 -0.589177
vn 0.703506 -0.708289 -0.0583688
vn 0.897355 0.156367 0.412677
vn -0.0388646 0.994764 0.0945242
vn -0.880395 -0.161689 0.445826
vn 0.330171 0.52274 0.785958
vn -0.942098 -0.274532 0.192571
vn 0.26986 0.866251 -0.420459
vn -0.0458058 0.991215 -0.124074
vn -0.92767 0.371225 0.0402588
vn 0.16431 0.415393 0.894679
vn -0.410809 0.911629 -0.0129684
vn 0.729966 0.037823 0.682436
vn -0.0904023 -0.303226 -0.948621
vn -0.218815 -0.364273 -0.905221
vn -0.74847 -0.659987 0.0648796
vn 0.640777 0.672252 -0.370784
vn 0.120607 -0.9597 -0.25383
vn 0.467814 -0.69308 0.548443
vn 0.611972 -0.138963 0.778575
vn -0.123778 -0.146378 -0.981454
vn -0.473611 -0.0877282 -0.876354
vn -0.691753 0.696246 -0.191624
vn 0.879023 -0.223937 -0.420917
vn -0.983165 0.070389 0.168618
vn 0.808851 0.541643 0.228875
vn -0.437018 -0.235467 -0.868084
vn -0.960463 -0.083458 0.265604
vn 0.17619 -0.971196 -0.160425
vn -0.518271 0.604606 -0.604853
vn -0.0516967 -0.997933 0.0381657
vn -0.0120188 -0.170851 0.985224
vn -0.884012 -0.463677 0.0593863
vn 0.899021 0.329961 -0.2879
vn -0.74376 -0.21546 -0.63277
vn 0.279598 -0.895875 -0.345301
vn 0.714611 -0.582441 -0.387419
vn 0.126733 -0.983742 0.127238
vn 0.166521 0.472829 -0.865276
vn -0.215935 0.700754 0.679938
vn -0.673987 0.728663 0.121622
vn -0.00653464 -0.0283424 0.999577
vn -0.589442 0.23016 0.774328
vn 0.805461 -0.269753 -0.527699
vn -0.52549 -0.556888 -0.643223
vn -0.643456 -0.763163 -0.0595458
vn 0.649161 0.106258 -0.753193
vn -0.549795 -0.835255 0.0085848
g grp1
usemtl mtl1
f 6//6 80//80 85//85 
f 13//13 49//49 51//51 
f 9//9 64//64 69//69 
f 70//70 58//58 67//67 
f 67//67 58//58 39//39 
f 62//62 58//58 70//70 
f 51//51 58//58 98//98 
f 35//35 99//99 45//45 
f 45//45 99//99 70//70 
f 24//24 67//67 66//66 
f 24//24 70//70 67//67 
f 81//81 70//70 24//24 
f 45//45 70//70 81//81 
f 50//50 35//35 45//45 
f 79//79 72//72 29//29 
f 75//75 23//23 2//2 
f 75//75 48//48 66//66 
f 39//39 66//66 67//67 
f 66//66 39//39 75//75 
f 59//59 5//5 24//24 
f 97//97 3//3 88//88 
f 7//7 88//88 3//3 
f 43//43 47//47 25//25 
f 59//59 24//24 48//48 
f 97//97 48//48 2//2 
f 36//36 97//97 2//2 
f 41//41 3//3 97//97 
f 48//48 75//75 2//2 
f 97//97 36//36 41//41 
f 36//36 2//2 23//23 
f 22//22 36//36 23//23 
f 41//41 36//36 105//105 
f 29//29 41//41 79//79 
f 88//88 7//7 81//81 
f 88//88 81//81 24//24 
f 68//68 81//81 7//7 
f 45//45 81//81 68//68 
f 25//25 47//47 7//7 
f 7//7 47//47 68//68 
f 83//83 68//68 47//47 
f 68//68 50//50 45//45 
f 69//69 38//38 9//9 
f 9//9 71//71 61//61 
f 27//27 64//64 9//9 
f 9//9 61//61 84//84 
f 27//27 9//9 84//84 
f 43//43 37//37 83//83 
f 16//16 61//61 71//71 
f 51//51 35//35 13//13 
f 98//98 35//35 51//51 
f 69//69 51//51 49//49 
f 51//51 69//69 58//58 
f 85//85 29//29 73//73 
f 64//64 58//58 69//69 
f 27//27 58//58 64//64 
f 49//49 38//38 69//69 
f 73//73 46//46 40//40 
f 84//84 39//39 27//27 
f 75//75 39//39 84//84 
f 28//28 75//75 84//84 
f 73//73 1//1 85//85 
f 73//73 40//40 1//1 
f 54//54 92//92 84//84 
f 93//93 43//43 6//6 
f 18//18 93//93 1//1 
f 6//6 1//1 93//93 
f 1//1 6//6 85//85 
f 54//54 84//84 61//61 
f 75//75 92//92 23//23 
f 61//61 16//16 54//54 
f 4//4 23//23 54//54 
f 92//92 54//54 23//23 
f 32//32 30//30 13//13 
f 49//49 13//13 34//34 
f 50//50 32//32 13//13 
f 4//4 16//16 42//42 
f 4//4 54//54 16//16 
f 12//12 23//23 4//4 
f 36//36 22//22 105//105 
f 12//12 22//22 23//23 
f 73//73 29//29 72//72 
f 32//32 68//68 83//83 
f 68//68 32//32 50//50 
f 83//83 47//47 43//43 
f 13//13 35//35 50//50 
f 24//24 66//66 48//48 
f 39//39 58//58 27//27 
f 71//71 9//9 38//38 
f 34//34 13//13 30//30 
f 32//32 83//83 86//86 
f 72//72 46//46 73//73 
f 21//21 26//26 60//60 
f 10//10 57//57 19//19 
f 56//56 77//77 17//17 
f 19//19 57//57 56//56 
f 14//14 56//56 17//17 
f 14//14 19//19 56//56 
f 33//33 19//19 14//14 
f 65//65 19//19 33//33 
f 87//87 53//53 89//89 
f 10//10 74//74 106//106 
f 19//19 74//74 10//10 
f 86//86 65//65 33//33 
f 52//52 87//87 76//76 
f 31//31 87//87 52//52 
f 87//87 31//31 53//53 
f 89//89 53//53 96//96 
f 26//26 96//96 53//53 
f 96//96 26//26 56//56 
f 31//31 60//60 53//53 
f 44//44 60//60 31//31 
f 77//77 56//56 26//26 
f 21//21 77//77 26//26 
f 60//60 26//26 53//53 
f 44//44 8//8 60//60 
f 18//18 1//1 103//103 
f 40//40 103//103 1//1 
f 52//52 76//76 94//94 
f 95//95 52//52 94//94 
f 44//44 31//31 52//52 
f 52//52 95//95 44//44 
f 91//91 104//104 74//74 
f 19//19 65//65 74//74 
f 91//91 74//74 65//65 
f 37//37 91//91 65//65 
f 65//65 83//83 37//37 
f 71//71 38//38 78//78 
f 78//78 38//38 15//15 
f 78//78 15//15 55//55 
f 20//20 71//71 78//78 
f 30//30 86//86 33//33 
f 63//63 30//30 33//33 
f 11//11 34//34 100//100 
f 33//33 14//14 63//63 
f 90//90 11//11 100//100 
f 17//17 11//11 90//90 
f 38//38 34//34 11//11 
f 11//11 17//17 55//55 
f 11//11 15//15 38//38 
f 55//55 15//15 11//11 
f 21//21 55//55 77//77 
f 78//78 55//55 21//21 
f 78//78 21//21 20//20 
f 60//60 8//8 21//21 
f 8//8 20//20 21//21 
f 8//8 16//16 20//20 
f 41//41 80//80 3//3 
f 42//42 16//16 8//8 
f 29//29 85//85 80//80 
f 43//43 25//25 6//6 
f 25//25 80//80 6//6 
f 80//80 41//41 29//29 
f 7//7 3//3 25//25 
f 3//3 80//80 25//25 
f 44//44 42//42 8//8 
f 16//16 71//71 20//20 
f 38//38 49//49 34//34 
f 30//30 101//101 34//34 
f 86//86 30//30 32//32 
f 105//105 82//82 102//102 
f 44//44 95//95 82//82 
f 95//95 102//102 82//82 
f 12//12 42//42 82//82 
f 42//42 44//44 82//82 
f 22//22 12//12 82//82 
f 4//4 42//42 12//12 
f 65//65 86//86 83//83 
f 104//104 106//106 74//74 
f 55//55 17//17 77//77 
f 22//22 82//82 105//105 
