#
# Compatibility version : brain5.0i
# File ID : FJ7509M
# Representation ID : BP58266
# Build-up logic : FMA 3.2.1-inference part_of
# Concept ID : FMA62008
# English name : Hypothalamus
# Bounds(mm): (-2.775700,-99.538800,1544.237300)-(-1.118700,-96.740900,1548.470200)
# Volume(cm3): 0.009200
#
v -2.41879 -98.7587 1544.4
v -2.20765 -98.9123 1544.45
v -2.30683 -98.6944 1544.33
v -1.9759 -98.8424 1544.44
v -2.14436 -98.7183 1544.33
v -1.92909 -97.4594 1544.57
v -2.05479 -97.6162 1544.41
v -1.80637 -97.5905 1544.48
v -2.02805 -96.7834 1547.18
v -2.15403 -96.7665 1547.62
v -2.21704 -96.7409 1547.15
v -2.34464 -96.7641 1547.59
v -1.93564 -97.3428 1548.36
v -1.78694 -97.3913 1548.33
v -1.85759 -97.6407 1548.44
v -2.16882 -97.5143 1548.42
v -2.0189 -97.4813 1548.43
v -2.06959 -97.6918 1548.47
v -1.27094 -97.8286 1545.88
v -1.34011 -97.6985 1545.4
v -1.23276 -98.1362 1545.18
v -1.49151 -98.5449 1544.67
v -1.77888 -98.7411 1544.5
v -1.61921 -98.8942 1544.73
v -2.76711 -98.4327 1544.96
v -2.68594 -98.7048 1544.67
v -2.71174 -98.3442 1544.61
v -1.18965 -98.1977 1546.34
v -1.3586 -97.6833 1546.63
v -1.35409 -97.9499 1547.27
v -1.61759 -97.2618 1547.47
v -1.54227 -97.5236 1547.71
v -1.73792 -97.163 1547.96
v -2.76974 -97.8538 1546.74
v -2.77574 -97.9977 1545.86
v -2.75307 -97.3643 1546.89
v -2.74185 -97.2005 1547.58
v -2.76506 -97.4217 1547.51
v -2.67214 -97.0444 1547.75
v -2.60752 -97.0575 1547.95
v -2.67055 -97.242 1548.02
v -2.71622 -97.3343 1547.91
v -2.71316 -97.674 1545.7
v -2.69701 -98.0823 1544.73
v -1.15229 -98.3157 1545.63
v -1.25013 -98.7972 1545.16
v -1.16575 -98.6126 1545.27
v -1.27743 -98.4191 1544.92
v -1.11867 -98.7751 1545.64
v -1.42293 -98.8336 1544.92
v -2.6304 -98.5006 1544.47
v -2.2625 -97.603 1548.41
v -2.2409 -97.7464 1548.41
v -2.58789 -97.4268 1545.5
v -2.62117 -97.7529 1544.89
v -1.72935 -97.6016 1548.36
v -2.4175 -97.4303 1548.3
v -2.27728 -97.3394 1548.32
v -2.12536 -97.2393 1548.31
v -1.87772 -97.2231 1548.29
v -1.67704 -97.435 1548.19
v -2.57426 -98.3232 1544.37
v -2.57651 -98.129 1544.41
v -2.42232 -97.186 1545.58
v -2.44494 -97.459 1544.95
v -2.55361 -97.8297 1544.57
v -2.43441 -97.924 1544.36
v -2.39309 -97.6484 1544.53
v -2.25605 -97.4174 1544.7
v -2.24383 -97.7757 1544.35
v -2.21329 -97.5471 1544.5
v -2.49441 -97.2124 1548.14
v -2.00461 -97.8012 1544.33
v -1.75034 -97.7706 1544.44
v -1.92355 -97.9699 1544.31
v -1.68946 -98.0328 1544.42
v -1.92918 -98.2314 1544.29
v -1.6181 -98.3365 1544.49
v -1.81391 -98.4212 1544.36
v -2.04465 -98.53 1544.29
v -1.62386 -97.598 1544.62
v -1.48959 -97.9061 1544.62
v -1.36301 -98.1348 1544.76
v -1.4807 -97.6049 1544.88
v -1.3464 -97.8867 1544.89
v -1.48765 -97.4475 1545.28
v -2.10638 -98.009 1544.26
v -2.28409 -98.0557 1544.26
v -2.43453 -98.2101 1544.28
v -2.35276 -98.3311 1544.24
v -2.48312 -98.4963 1544.33
v -2.55557 -98.76 1544.49
v -2.16598 -98.2835 1544.24
v -2.25912 -98.5023 1544.26
v -1.51716 -97.3131 1546.03
v -1.61366 -97.161 1546.79
v -1.81237 -96.924 1547.07
v -1.77051 -97.0125 1547.56
v -1.89494 -96.9666 1547.95
v -1.93591 -96.8668 1547.67
v -2.06762 -96.8342 1547.86
v -2.5417 -96.8841 1547.78
v -2.6813 -97.0748 1547.24
v -2.61398 -97.1841 1546.35
v -2.56907 -96.9161 1547.25
v -2.49846 -96.8158 1547.55
v -2.39337 -96.7897 1547.13
v -2.40062 -96.9528 1547.99
v -2.25827 -96.8291 1547.88
v -2.02698 -96.929 1548.02
v -2.42433 -96.9437 1546.41
v -2.23033 -97.2091 1545.14
v -2.05049 -97.3141 1544.77
v -1.87302 -97.3224 1544.77
v -2.23647 -96.9652 1545.88
v -2.02357 -97.1418 1545.16
v -1.92556 -97.0386 1545.49
v -2.06286 -96.9211 1545.9
v -2.24439 -96.8046 1546.6
v -2.07961 -96.7933 1546.62
v -1.60931 -97.218 1545.68
v -1.78394 -96.9753 1546.35
v -1.95184 -96.8342 1546.6
v -1.63744 -97.3182 1545.13
v -1.8474 -97.0031 1545.82
v -2.57629 -97.4036 1548.17
v -1.69788 -97.4194 1544.76
v -1.79646 -97.2215 1545.07
v -2.39572 -99.0018 1544.58
v -2.03506 -99.0188 1544.55
v -2.02216 -99.5327 1545.78
v -1.82354 -99.5388 1545.67
v -2.04628 -99.5283 1545.54
v -1.7805 -98.7087 1547.52
v -2.01189 -98.7498 1547.31
v -1.92581 -98.3168 1547.99
v -1.68548 -98.4802 1547.79
v -1.8792 -99.1019 1544.72
v -2.28422 -99.4412 1545.52
v -1.5344 -97.7138 1547.93
v -1.18674 -98.9248 1546.33
v -1.21829 -98.4853 1546.76
v -1.12583 -98.6696 1546.08
v -1.40097 -98.2117 1547.52
v -2.1808 -96.9748 1548.08
v -2.70262 -97.7062 1547.55
v -2.6851 -98.25 1546.64
v -2.55183 -98.3039 1547.08
v -2.57492 -97.5699 1548.1
v -2.51054 -97.9106 1547.82
v -2.72782 -98.6193 1545.55
v -2.59831 -98.7722 1546.02
v -2.74352 -98.7567 1545.04
v -2.66865 -98.9515 1544.94
v -1.19633 -99.1146 1545.9
v -1.19961 -99.0091 1545.52
v -1.40757 -99.1657 1545.31
v -1.63303 -99.172 1545
v -2.57456 -99.0476 1544.82
v -2.61549 -99.0656 1545.35
v -2.44574 -98.9953 1546.13
v -2.43132 -99.278 1545.68
v -2.47777 -99.2961 1545.38
v -2.49661 -99.2344 1545.09
v -2.00521 -97.0822 1548.18
v -2.25582 -97.125 1548.2
v -1.8393 -97.1423 1548.16
v -2.24253 -99.1589 1546.31
v -2.21202 -99.4264 1545.86
v -2.26596 -99.4239 1545.23
v -1.9907 -99.4788 1545.31
v -1.68932 -99.4669 1545.54
v -1.84828 -99.3558 1545.08
v -1.61472 -99.4897 1545.93
v -1.59979 -99.3573 1545.35
v -1.39293 -99.3305 1545.73
v -2.53914 -98.9586 1544.64
v -2.20342 -99.3815 1545.04
v -2.40316 -99.2352 1544.9
v -2.09387 -99.3101 1544.9
v -2.27899 -99.2333 1544.79
v -2.14956 -99.1392 1544.65
v -1.33597 -98.8052 1546.94
v -1.61982 -97.7546 1548.17
v -1.60409 -98.1247 1548.01
v -1.49264 -98.4386 1547.62
v -1.72776 -97.8792 1548.3
v -1.83921 -97.8825 1548.39
v -1.56088 -98.8527 1547.24
v -1.78149 -98.1453 1548.18
v -1.91444 -98.0131 1548.32
v -2.40115 -97.6021 1548.33
v -2.37305 -97.7987 1548.22
v -2.29456 -98.4573 1547.38
v -2.18628 -98.0452 1548.14
v -1.96004 -97.7869 1548.47
v -2.07848 -97.8829 1548.4
v -2.03534 -99.3603 1546.26
v -2.00382 -99.4978 1545.99
v -1.80027 -99.4314 1546.28
v -1.7822 -99.1488 1546.82
v -1.25469 -99.1504 1546.25
v -1.39469 -99.1532 1546.58
v -1.60047 -99.2139 1546.71
v -1.38583 -99.3492 1546.08
v -1.55009 -99.3909 1546.29
v -1.78984 -99.5192 1546.01
vn -0.373914 -0.473212 -0.797659
vn -0.0439478 -0.591311 -0.805246
vn -0.18306 -0.387621 -0.903459
vn 0.321935 -0.494555 -0.807325
vn 0.102782 -0.403653 -0.909121
vn 0.180084 0.742058 -0.645694
vn 0.0708142 0.536354 -0.841017
vn 0.356852 0.524701 -0.772881
vn 0.419954 0.907527 0.00579179
vn 0.174484 0.976336 0.127766
vn -0.0222633 0.99918 -0.0338233
vn -0.210227 0.969832 0.123413
vn 0.145377 0.443336 0.884488
vn 0.576223 0.383099 0.721943
vn 0.37582 0.0891058 0.922399
vn -0.215137 0.299941 0.929382
vn -0.00111418 0.310094 0.950705
vn -0.14411 -0.0138615 0.989465
vn 0.947577 0.31942 -0.00834922
vn 0.914455 0.392966 -0.0966999
vn 0.967669 0.17964 -0.177051
vn 0.721596 -0.243299 -0.648155
vn 0.523918 -0.376982 -0.763803
vn 0.605279 -0.49136 -0.62626
vn -0.996833 0.00604163 -0.0792903
vn -0.904048 -0.27166 -0.329997
vn -0.943903 0.0295155 -0.328902
vn 0.980804 0.178915 0.0775452
vn 0.932116 0.355046 0.0714241
vn 0.971398 0.166668 0.169138
vn 0.894761 0.434862 0.101473
vn 0.93318 0.323068 0.157487
vn 0.839125 0.499335 0.215716
vn -0.991472 -0.115086 0.0611466
vn -0.999314 0.0314823 -0.019482
vn -0.978937 0.19615 -0.05663
vn -0.972264 0.230363 0.0404538
vn -0.996762 -0.0348213 0.0724778
vn -0.880582 0.453816 0.136479
vn -0.634998 0.565898 0.525868
vn -0.808154 0.297281 0.50844
vn -0.964441 -0.0361553 0.261812
vn -0.960087 0.257659 -0.108834
vn -0.946345 0.229285 -0.227727
vn 0.988479 0.145636 -0.0412139
vn 0.839811 -0.348222 -0.416483
vn 0.971073 -0.0636831 -0.230133
vn 0.886286 -0.111376 -0.449546
vn 0.991576 -0.108964 -0.0700201
vn 0.736291 -0.422913 -0.528224
vn -0.821825 -0.129764 -0.554766
vn -0.377503 0.120091 0.918188
vn -0.493871 -0.386374 0.778978
vn -0.848128 0.494906 -0.189069
vn -0.884876 0.411582 -0.218163
vn 0.744312 0.079751 0.663053
vn -0.482009 0.26632 0.83471
vn -0.314564 0.398673 0.861457
vn -0.101569 0.514412 0.851507
vn 0.333415 0.579675 0.743513
vn 0.877312 0.311959 0.364699
vn -0.704972 -0.0112009 -0.709146
vn -0.810139 0.194285 -0.553108
vn -0.669133 0.703968 -0.238096
vn -0.708353 0.635704 -0.306784
vn -0.801869 0.427068 -0.417874
vn -0.537023 0.361549 -0.762161
vn -0.57347 0.591626 -0.566666
vn -0.455195 0.768842 -0.449087
vn -0.217467 0.439261 -0.871641
vn -0.247647 0.698794 -0.671087
vn -0.465687 0.46072 0.755562
vn 0.161483 0.342166 -0.92566
vn 0.470213 0.297321 -0.830964
vn 0.343701 0.151641 -0.926755
vn 0.565298 0.0716358 -0.82177
vn 0.369359 -0.0213667 -0.929041
vn 0.648007 -0.0966982 -0.755471
vn 0.490207 -0.176508 -0.853547
vn 0.276244 -0.243101 -0.929834
vn 0.616972 0.5111 -0.598433
vn 0.758832 0.201501 -0.619331
vn 0.854851 0.0361777 -0.51761
vn 0.812159 0.494989 -0.308843
vn 0.909558 0.27958 -0.307473
vn 0.821021 0.555239 -0.132792
vn 0.0893948 0.171464 -0.981126
vn -0.172859 0.194408 -0.96557
vn -0.485317 0.0948399 -0.869179
vn -0.226617 -0.0629595 -0.971947
vn -0.485676 -0.220322 -0.845918
vn -0.643082 -0.400874 -0.652492
vn 0.0837093 -0.0302007 -0.996032
vn -0.0683604 -0.228995 -0.971024
vn 0.854936 0.518342 -0.0201256
vn 0.836829 0.546696 0.0289947
vn 0.671918 0.740374 0.019312
vn 0.784538 0.611228 0.104404
vn 0.619267 0.730671 0.287449
vn 0.552616 0.825723 0.11312
vn 0.301174 0.904042 0.303319
vn -0.573787 0.772764 0.271301
vn -0.889407 0.452174 -0.0670296
vn -0.847791 0.508926 -0.149148
vn -0.756515 0.649353 -0.0776305
vn -0.555097 0.831502 0.0217098
vn -0.439448 0.893347 -0.0938974
vn -0.342194 0.6927 0.634878
vn -0.104242 0.897388 0.428752
vn 0.233219 0.800785 0.551681
vn -0.616838 0.766299 -0.17971
vn -0.428494 0.839948 -0.332988
vn -0.133999 0.857204 -0.497239
vn 0.217988 0.854937 -0.470706
vn -0.37933 0.889612 -0.254362
vn -0.0488449 0.93796 -0.343285
vn 0.244854 0.934167 -0.259575
vn 0.013684 0.975066 -0.221491
vn -0.259462 0.951893 -0.163034
vn 0.167906 0.978734 -0.117846
vn 0.719141 0.68628 -0.108883
vn 0.672041 0.739109 -0.0455949
vn 0.451468 0.889 -0.0765178
vn 0.659664 0.716569 -0.226656
vn 0.468529 0.867913 -0.164949
vn -0.74967 0.0475468 0.660102
vn 0.541446 0.715334 -0.441739
vn 0.413444 0.858475 -0.303455
vn -0.353781 -0.653061 -0.66959
vn 0.223862 -0.643769 -0.731743
vn -0.231126 -0.968513 0.092536
vn 0.13812 -0.986892 -0.0834733
vn -0.159314 -0.982004 -0.101425
vn -0.0651439 -0.81648 0.573686
vn -0.475772 -0.73963 0.476014
vn -0.209794 -0.752222 0.624619
vn 0.376403 -0.682284 0.626745
vn 0.38957 -0.673746 -0.627934
vn -0.516295 -0.856124 0.0221393
vn 0.954143 0.142448 0.263286
vn 0.955255 -0.233823 0.181148
vn 0.978562 -0.0401937 0.201992
vn 0.997041 -0.0301925 0.0706961
vn 0.943243 -0.0935666 0.31865
vn -0.0760133 0.719176 0.690657
vn -0.92438 -0.31536 0.214639
vn -0.931281 -0.323752 0.167034
vn -0.832984 -0.479355 0.276325
vn -0.838773 -0.345656 0.420693
vn -0.767964 -0.528314 0.362099
vn -0.974978 -0.202407 0.091925
vn -0.895226 -0.397659 0.201093
vn -0.974351 -0.221842 -0.0377696
vn -0.888104 -0.437123 -0.142112
vn 0.911599 -0.411078 0.00140541
vn 0.875001 -0.418604 -0.243194
vn 0.699853 -0.596108 -0.393524
vn 0.564577 -0.650219 -0.508397
vn -0.746052 -0.574971 -0.335879
vn -0.897885 -0.428069 0.102764
vn -0.80936 -0.512683 0.286517
vn -0.760253 -0.607066 0.231272
vn -0.744822 -0.66668 0.0279069
vn -0.697796 -0.699713 -0.153239
vn 0.119294 0.670972 0.731823
vn -0.262533 0.567029 0.78074
vn 0.605443 0.625388 0.492269
vn -0.667231 -0.64544 0.371765
vn -0.556687 -0.788454 0.261609
vn -0.359087 -0.909893 -0.207727
vn 0.0809207 -0.950243 -0.300817
vn 0.378869 -0.894445 -0.237544
vn 0.325767 -0.833434 -0.446389
vn 0.38738 -0.921758 0.0172952
vn 0.526418 -0.773684 -0.352558
vn 0.652302 -0.737024 -0.176909
vn -0.63424 -0.572448 -0.519656
vn -0.165054 -0.908696 -0.383444
vn -0.484565 -0.775027 -0.405624
vn 0.123849 -0.850633 -0.510965
vn -0.206574 -0.811107 -0.547204
vn 0.0383806 -0.746539 -0.664233
vn 0.859589 -0.371603 0.350741
vn 0.899138 -0.0266777 0.436852
vn 0.778198 -0.332052 0.533056
vn 0.778106 -0.415768 0.470838
vn 0.689547 -0.24125 0.682879
vn 0.424089 -0.368541 0.82724
vn 0.439975 -0.72607 0.528435
vn 0.374665 -0.597839 0.708671
vn 0.0233819 -0.62781 0.778015
vn -0.668495 -0.17288 0.723344
vn -0.69367 -0.515907 0.502655
vn -0.686147 -0.615999 0.386972
vn -0.554291 -0.657862 0.509881
vn 0.0844634 -0.303419 0.949106
vn -0.293098 -0.556481 0.777446
vn -0.44757 -0.790764 0.417581
vn -0.297184 -0.910241 0.288347
vn -0.0785848 -0.914444 0.39701
vn -0.143125 -0.849992 0.506981
vn 0.836753 -0.499487 0.224403
vn 0.631147 -0.679406 0.374247
vn 0.238639 -0.851966 0.466052
vn 0.648035 -0.751338 0.124668
vn 0.344779 -0.887798 0.304863
vn 0.0588607 -0.980769 0.186087
g grp1
usemtl mtl1
f 3//3 2//2 1//1 
f 5//5 4//4 2//2 
f 8//8 7//7 6//6 
f 11//11 10//10 9//9 
f 12//12 10//10 11//11 
f 15//15 14//14 13//13 
f 18//18 17//17 16//16 
f 21//21 20//20 19//19 
f 24//24 23//23 22//22 
f 27//27 26//26 25//25 
f 19//19 29//29 28//28 
f 30//30 28//28 29//29 
f 32//32 29//29 31//31 
f 32//32 30//30 29//29 
f 33//33 32//32 31//31 
f 36//36 35//35 34//34 
f 38//38 37//37 36//36 
f 41//41 40//40 39//39 
f 42//42 41//41 39//39 
f 42//42 39//39 37//37 
f 38//38 42//42 37//37 
f 43//43 25//25 35//35 
f 25//25 43//43 44//44 
f 27//27 25//25 44//44 
f 19//19 28//28 45//45 
f 45//45 21//21 19//19 
f 48//48 47//47 46//46 
f 47//47 21//21 45//45 
f 49//49 47//47 45//45 
f 48//48 21//21 47//47 
f 48//48 50//50 22//22 
f 50//50 24//24 22//22 
f 27//27 51//51 26//26 
f 53//53 18//18 52//52 
f 18//18 15//15 17//17 
f 55//55 43//43 54//54 
f 55//55 44//44 43//43 
f 52//52 18//18 16//16 
f 17//17 15//15 13//13 
f 14//14 15//15 56//56 
f 58//58 57//57 52//52 
f 16//16 58//58 52//52 
f 59//59 58//58 16//16 
f 59//59 16//16 17//17 
f 59//59 17//17 13//13 
f 60//60 13//13 14//14 
f 14//14 56//56 61//61 
f 63//63 62//62 51//51 
f 27//27 63//63 51//51 
f 44//44 63//63 27//27 
f 65//65 54//54 64//64 
f 65//65 55//55 54//54 
f 66//66 55//55 65//65 
f 66//66 44//44 55//55 
f 63//63 44//44 66//66 
f 66//66 67//67 63//63 
f 69//69 68//68 65//65 
f 68//68 66//66 65//65 
f 68//68 67//67 66//66 
f 68//68 70//70 67//67 
f 71//71 68//68 69//69 
f 71//71 7//7 70//70 
f 68//68 71//71 70//70 
f 57//57 58//58 72//72 
f 74//74 73//73 7//7 
f 8//8 74//74 7//7 
f 74//74 75//75 73//73 
f 76//76 75//75 74//74 
f 77//77 75//75 76//76 
f 78//78 77//77 76//76 
f 79//79 77//77 78//78 
f 79//79 23//23 80//80 
f 78//78 22//22 23//23 
f 78//78 23//23 79//79 
f 81//81 74//74 8//8 
f 82//82 76//76 74//74 
f 83//83 48//48 22//22 
f 78//78 83//83 22//22 
f 82//82 83//83 78//78 
f 82//82 74//74 81//81 
f 82//82 81//81 84//84 
f 85//85 82//82 84//84 
f 83//83 82//82 85//85 
f 76//76 82//82 78//78 
f 85//85 21//21 83//83 
f 20//20 85//85 84//84 
f 20//20 84//84 86//86 
f 85//85 20//20 21//21 
f 73//73 70//70 7//7 
f 73//73 87//87 70//70 
f 88//88 67//67 70//70 
f 87//87 88//88 70//70 
f 89//89 67//67 88//88 
f 89//89 62//62 63//63 
f 67//67 89//89 63//63 
f 91//91 89//89 90//90 
f 51//51 62//62 91//91 
f 91//91 62//62 89//89 
f 51//51 92//92 26//26 
f 91//91 1//1 92//92 
f 91//91 92//92 51//51 
f 75//75 87//87 73//73 
f 93//93 88//88 87//87 
f 90//90 89//89 88//88 
f 93//93 90//90 88//88 
f 94//94 90//90 93//93 
f 94//94 91//91 90//90 
f 3//3 91//91 94//94 
f 3//3 1//1 91//91 
f 87//87 77//77 93//93 
f 75//75 77//77 87//87 
f 80//80 93//93 77//77 
f 80//80 94//94 93//93 
f 5//5 94//94 80//80 
f 3//3 5//5 2//2 
f 5//5 3//3 94//94 
f 80//80 77//77 79//79 
f 23//23 4//4 80//80 
f 80//80 4//4 5//5 
f 95//95 29//29 19//19 
f 96//96 29//29 95//95 
f 31//31 29//29 96//96 
f 98//98 96//96 97//97 
f 96//96 98//98 31//31 
f 98//98 33//33 31//31 
f 99//99 33//33 98//98 
f 98//98 100//100 99//99 
f 100//100 98//98 97//97 
f 10//10 101//101 100//100 
f 99//99 100//100 101//101 
f 97//97 9//9 100//100 
f 9//9 10//10 100//100 
f 39//39 40//40 102//102 
f 103//103 37//37 39//39 
f 37//37 103//103 36//36 
f 103//103 104//104 36//36 
f 43//43 36//36 104//104 
f 103//103 105//105 104//104 
f 105//105 103//103 39//39 
f 105//105 39//39 102//102 
f 106//106 105//105 102//102 
f 106//106 107//107 105//105 
f 12//12 106//106 102//102 
f 109//109 102//102 108//108 
f 12//12 102//102 109//109 
f 106//106 12//12 107//107 
f 101//101 110//110 99//99 
f 101//101 10//10 109//109 
f 71//71 6//6 7//7 
f 104//104 54//54 43//43 
f 64//64 104//104 111//111 
f 104//104 64//64 54//54 
f 112//112 65//65 64//64 
f 112//112 69//69 65//65 
f 113//113 6//6 71//71 
f 113//113 71//71 69//69 
f 112//112 113//113 69//69 
f 6//6 113//113 114//114 
f 111//111 104//104 105//105 
f 115//115 112//112 64//64 
f 115//115 64//64 111//111 
f 116//116 112//112 115//115 
f 118//118 117//117 116//116 
f 118//118 116//116 115//115 
f 112//112 116//116 113//113 
f 107//107 111//111 105//105 
f 119//119 115//115 111//111 
f 107//107 119//119 111//111 
f 119//119 118//118 115//115 
f 119//119 11//11 120//120 
f 119//119 120//120 118//118 
f 11//11 119//119 107//107 
f 12//12 11//11 107//107 
f 9//9 120//120 11//11 
f 19//19 20//20 95//95 
f 86//86 95//95 20//20 
f 121//121 95//95 86//86 
f 122//122 97//97 96//96 
f 122//122 96//96 95//95 
f 122//122 9//9 97//97 
f 123//123 9//9 122//122 
f 123//123 120//120 9//9 
f 124//124 121//121 86//86 
f 121//121 122//122 95//95 
f 125//125 122//122 121//121 
f 125//125 121//121 124//124 
f 72//72 126//126 57//57 
f 126//126 72//72 41//41 
f 125//125 120//120 123//123 
f 125//125 123//123 122//122 
f 125//125 117//117 118//118 
f 124//124 86//86 84//84 
f 127//127 124//124 84//84 
f 127//127 84//84 81//81 
f 128//128 124//124 127//127 
f 114//114 128//128 127//127 
f 128//128 125//125 124//124 
f 128//128 116//116 117//117 
f 128//128 117//117 125//125 
f 116//116 114//114 113//113 
f 114//114 116//116 128//128 
f 6//6 127//127 81//81 
f 6//6 81//81 8//8 
f 6//6 114//114 127//127 
f 120//120 125//125 118//118 
f 109//109 10//10 12//12 
f 46//46 50//50 48//48 
f 21//21 48//48 83//83 
f 34//34 38//38 36//36 
f 35//35 36//36 43//43 
f 2//2 129//129 1//1 
f 130//130 2//2 4//4 
f 1//1 129//129 92//92 
f 133//133 132//132 131//131 
f 136//136 135//135 134//134 
f 136//136 134//134 137//137 
f 23//23 138//138 4//4 
f 4//4 138//138 130//130 
f 133//133 131//131 139//139 
f 138//138 23//23 24//24 
f 61//61 140//140 32//32 
f 143//143 142//142 141//141 
f 28//28 142//142 143//143 
f 28//28 30//30 142//142 
f 142//142 30//30 144//144 
f 144//144 30//30 140//140 
f 145//145 109//109 108//108 
f 110//110 101//101 109//109 
f 32//32 140//140 30//30 
f 34//34 147//147 146//146 
f 146//146 147//147 148//148 
f 34//34 146//146 38//38 
f 38//38 146//146 42//42 
f 150//150 149//149 146//146 
f 149//149 42//42 146//146 
f 149//149 126//126 42//42 
f 126//126 41//41 42//42 
f 151//151 147//147 34//34 
f 152//152 147//147 151//151 
f 34//34 35//35 151//151 
f 151//151 25//25 153//153 
f 151//151 35//35 25//25 
f 25//25 26//26 153//153 
f 26//26 154//154 153//153 
f 155//155 143//143 141//141 
f 28//28 143//143 45//45 
f 143//143 49//49 45//45 
f 156//156 49//49 155//155 
f 49//49 143//143 155//155 
f 156//156 47//47 49//49 
f 156//156 46//46 47//47 
f 50//50 46//46 157//157 
f 157//157 46//46 156//156 
f 24//24 50//50 158//158 
f 159//159 154//154 26//26 
f 152//152 151//151 160//160 
f 153//153 160//160 151//151 
f 153//153 154//154 160//160 
f 160//160 161//161 152//152 
f 160//160 162//162 161//161 
f 160//160 163//163 162//162 
f 164//164 154//154 159//159 
f 164//164 160//160 154//154 
f 109//109 145//145 110//110 
f 110//110 145//145 165//165 
f 166//166 145//145 108//108 
f 145//145 59//59 165//165 
f 166//166 59//59 145//145 
f 165//165 167//167 110//110 
f 110//110 167//167 99//99 
f 99//99 167//167 33//33 
f 59//59 166//166 58//58 
f 165//165 59//59 13//13 
f 165//165 60//60 167//167 
f 165//165 13//13 60//60 
f 167//167 60//60 14//14 
f 167//167 14//14 61//61 
f 166//166 72//72 58//58 
f 163//163 160//160 164//164 
f 161//161 162//162 168//168 
f 162//162 169//169 168//168 
f 162//162 163//163 139//139 
f 164//164 139//139 163//163 
f 170//170 139//139 164//164 
f 139//139 169//169 162//162 
f 102//102 40//40 108//108 
f 72//72 166//166 108//108 
f 133//133 171//171 132//132 
f 171//171 172//172 132//132 
f 171//171 173//173 172//172 
f 108//108 40//40 72//72 
f 138//138 158//158 173//173 
f 138//138 24//24 158//158 
f 132//132 172//172 174//174 
f 175//175 172//172 173//173 
f 175//175 173//173 158//158 
f 158//158 157//157 175//175 
f 175//175 176//176 172//172 
f 175//175 157//157 176//176 
f 32//32 33//33 61//61 
f 61//61 33//33 167//167 
f 156//156 176//176 157//157 
f 156//156 155//155 176//176 
f 92//92 177//177 26//26 
f 139//139 170//170 133//133 
f 133//133 170//170 171//171 
f 170//170 178//178 171//171 
f 164//164 179//179 170//170 
f 179//179 178//178 170//170 
f 164//164 159//159 179//179 
f 159//159 177//177 179//179 
f 177//177 159//159 26//26 
f 92//92 129//129 177//177 
f 180//180 171//171 178//178 
f 181//181 178//178 179//179 
f 181//181 180//180 178//178 
f 177//177 129//129 179//179 
f 179//179 129//129 181//181 
f 180//180 173//173 171//171 
f 180//180 138//138 173//173 
f 182//182 138//138 180//180 
f 182//182 181//181 129//129 
f 181//181 182//182 180//180 
f 2//2 182//182 129//129 
f 2//2 130//130 182//182 
f 130//130 138//138 182//182 
f 142//142 183//183 141//141 
f 142//142 144//144 183//183 
f 140//140 184//184 144//144 
f 184//184 185//185 144//144 
f 140//140 61//61 184//184 
f 56//56 184//184 61//61 
f 186//186 183//183 144//144 
f 184//184 187//187 185//185 
f 187//187 184//184 56//56 
f 187//187 15//15 188//188 
f 187//187 56//56 15//15 
f 186//186 189//189 183//183 
f 186//186 185//185 137//137 
f 185//185 190//190 137//137 
f 137//137 189//189 186//186 
f 187//187 190//190 185//185 
f 191//191 190//190 188//188 
f 188//188 190//190 187//187 
f 191//191 136//136 190//190 
f 136//136 137//137 190//190 
f 126//126 192//192 57//57 
f 149//149 192//192 126//126 
f 149//149 150//150 193//193 
f 148//148 150//150 146//146 
f 161//161 194//194 148//148 
f 194//194 150//150 148//148 
f 192//192 52//52 57//57 
f 192//192 193//193 53//53 
f 192//192 149//149 193//193 
f 53//53 52//52 192//192 
f 194//194 195//195 150//150 
f 195//195 193//193 150//150 
f 195//195 53//53 193//193 
f 135//135 195//195 194//194 
f 135//135 136//136 195//195 
f 196//196 188//188 15//15 
f 18//18 197//197 196//196 
f 18//18 196//196 15//15 
f 53//53 197//197 18//18 
f 197//197 53//53 195//195 
f 197//197 191//191 196//196 
f 191//191 188//188 196//196 
f 195//195 136//136 197//197 
f 136//136 191//191 197//197 
f 161//161 148//148 152//152 
f 169//169 198//198 168//168 
f 169//169 199//199 198//198 
f 199//199 169//169 131//131 
f 169//169 139//139 131//131 
f 168//168 194//194 161//161 
f 168//168 198//198 135//135 
f 200//200 198//198 199//199 
f 200//200 201//201 198//198 
f 135//135 194//194 168//168 
f 201//201 135//135 198//198 
f 41//41 72//72 40//40 
f 141//141 202//202 155//155 
f 141//141 183//183 202//202 
f 183//183 203//203 202//202 
f 189//189 203//203 183//183 
f 189//189 204//204 203//203 
f 134//134 189//189 137//137 
f 201//201 189//189 134//134 
f 205//205 155//155 202//202 
f 155//155 205//205 176//176 
f 203//203 206//206 205//205 
f 204//204 206//206 203//203 
f 204//204 189//189 201//201 
f 200//200 204//204 201//201 
f 174//174 176//176 205//205 
f 174//174 172//172 176//176 
f 206//206 207//207 174//174 
f 200//200 207//207 206//206 
f 206//206 204//204 200//200 
f 207//207 200//200 199//199 
f 131//131 132//132 207//207 
f 207//207 132//132 174//174 
f 207//207 199//199 131//131 
f 174//174 205//205 206//206 
f 205//205 202//202 203//203 
f 135//135 201//201 134//134 
f 185//185 186//186 144//144 
f 50//50 157//157 158//158 
f 147//147 152//152 148//148 
