#
# Compatibility version : brain5.0i
# File ID : MM173M
# Representation ID : BP58314
# Build-up logic : FMA 3.2.1-inference is_a
# Concept ID : FMA74884
# English name : Uncus
# Bounds(mm): (-23.535500,-104.103000,1531.240000)-(-14.543500,-92.842700,1539.533400)
# Volume(cm3): 0.252900
#
v -16.7712 -102.843 1536.29
v -17.7985 -103.239 1535.84
v -17.7206 -102.062 1537.83
v -16.5649 -101.951 1537.43
v -17.3059 -101.466 1538.3
v -16.5059 -96.2 1537.77
v -17.4677 -96.4197 1538.54
v -17.9712 -95.106 1537.82
v -15.9344 -96.2024 1532.27
v -16.6182 -95.1194 1531.82
v -16.6373 -96.3789 1532.15
v -15.7615 -100.586 1533.65
v -16.1841 -98.9891 1532.7
v -16.9345 -99.9781 1533.16
v -15.841 -99.669 1538.07
v -16.1018 -100.881 1537.74
v -17.4234 -100.465 1538.85
v -16.5381 -99.5826 1538.64
v -16.0284 -94.0731 1533.61
v -15.1276 -96.0834 1533.96
v -15.6335 -95.5221 1535.51
v -15.6355 -97.1515 1537.57
v -15.8932 -95.9171 1536.79
v -17.0392 -93.7136 1535.11
v -15.9936 -94.1914 1532.04
v -15.7512 -94.7804 1533.1
v -15.9776 -93.8633 1532.31
v -17.1441 -94.5855 1536.59
v -16.0876 -93.5321 1532.34
v -16.5112 -93.2786 1533.38
v -16.2398 -94.0186 1531.51
v -16.3274 -97.1982 1538.29
v -16.034 -95.0043 1532.2
v -17.4023 -94.0091 1532.17
v -15.826 -98.4023 1538.19
v -16.5997 -98.4223 1538.81
v -16.6115 -103.689 1534.4
v -15.7915 -102.423 1534.33
v -16.9774 -103.201 1534.16
v -16.3727 -101.721 1533.86
v -16.0896 -97.0219 1532.12
v -15.1859 -99.0783 1533.37
v -15.1353 -97.8076 1532.67
v -15.6215 -98.1457 1532.45
v -15.2244 -96.7786 1536.61
v -14.8523 -96.7718 1535.35
v -15.1388 -97.9076 1537.26
v -14.7902 -97.7346 1536.44
v -15.1446 -96.8818 1532.81
v -14.6868 -97.2612 1533.91
v -15.0934 -100.967 1534.25
v -15.2805 -101.007 1536.78
v -15.1412 -99.6689 1537.26
v -14.76 -100.117 1536.31
v -14.6756 -98.616 1536.38
v -14.8356 -100.993 1534.86
v -14.8184 -98.3718 1533.35
v -14.623 -98.8741 1534.41
v -14.9912 -100.036 1534.1
v -14.7705 -97.742 1533.25
v -14.6796 -100.698 1535.51
v -14.5435 -99.3402 1535.6
v -15.0015 -101.505 1535.64
v -15.2235 -98.7853 1537.55
v -15.7651 -102.051 1536.52
v -15.6592 -102.589 1535.28
v -15.6043 -95.842 1532.81
v -16.0893 -97.7873 1532.2
v -15.5559 -97.2727 1532.29
v -14.552 -97.792 1535.2
v -16.0846 -102.895 1535.73
v -16.3878 -103.443 1534.91
v -16.6943 -97.3528 1532.19
v -16.8982 -98.3938 1532.49
v -16.9306 -94.3362 1531.24
v -17.5008 -96.2213 1532.33
v -17.1283 -97.584 1538.95
v -17.5265 -99.3048 1539.27
v -17.3073 -103.861 1534.61
v -17.4986 -101.307 1533.83
v -17.2338 -97.5881 1532.43
v -17.3839 -95.1348 1531.78
v -19.4059 -94.3401 1532.9
v -17.5126 -92.9978 1534.52
v -19.132 -93.4316 1534.57
v -18.5853 -92.8427 1535.63
v -17.4278 -98.3453 1539.24
v -17.9977 -97.2848 1539.11
v -17.7729 -97.9175 1532.88
v -17.5641 -99.4637 1533.14
v -18.3802 -99.3831 1533.78
v -20.1193 -102.404 1536.59
v -21.0404 -101.149 1537.61
v -19.3117 -102.127 1537.34
v -21.1724 -101.369 1537.25
v -20.3089 -101.11 1536.4
v -19.8443 -102.177 1535.89
v -19.5768 -100.418 1539.36
v -19.7245 -101.011 1538.89
v -20.9039 -100.079 1539.14
v -21.0545 -100.194 1536.75
v -20.9469 -100.675 1538.45
v -19.3771 -96.9469 1534.04
v -19.739 -94.93 1533.68
v -20.7881 -94.822 1534.85
v -19.5744 -92.9647 1536.18
v -20.5118 -93.2006 1536.44
v -20.2509 -93.4328 1535.45
v -21.0492 -95.981 1538.4
v -19.4312 -96.9156 1539.06
v -20.6369 -97.406 1539.06
v -20.0786 -99.0574 1535.38
v -20.4388 -94.0421 1534.15
v -21.1266 -93.7896 1535.17
v -21.1334 -93.7504 1536.2
v -21.8445 -94.9474 1536.79
v -21.3823 -94.2953 1535.79
v -21.6162 -100.072 1536.99
v -22.1684 -98.283 1537
v -21.0402 -97.7136 1535.75
v -22.1258 -98.9349 1538.69
v -22.4241 -97.9552 1538.36
v -21.8856 -97.8763 1538.75
v -21.5552 -99.1659 1539.08
v -22.17 -99.464 1536.94
v -22.0995 -100.337 1537.8
v -21.8452 -99.7398 1538.66
v -22.2819 -99.2481 1537.42
v -22.8268 -99.7119 1537.07
v -22.9547 -99.7227 1537.31
v -22.3195 -99.666 1537.94
v -23.1831 -100.041 1537
v -22.6765 -100.6 1537.18
v -23.5355 -99.709 1536.97
v -22.2032 -100.43 1537.1
v -22.3992 -98.643 1537.74
v -21.8249 -96.5085 1538.18
v -21.1414 -98.4782 1539.15
v -22.4894 -98.3586 1538.15
v -22.5005 -97.6799 1537.68
v -22.0881 -95.8673 1537.45
v -22.2688 -97.2088 1538.09
v -22.2202 -96.4561 1536.97
v -22.054 -97.1878 1536.61
v -21.0786 -96.3293 1535.41
v -21.7303 -95.6531 1536.09
v -21.7146 -95.1762 1537.64
v -21.4281 -94.3094 1537.09
v -20.952 -94.3797 1537.51
v -20.1533 -95.4156 1538.34
v -19.7358 -98.5034 1539.4
v -20.3417 -99.4455 1539.41
v -19.6869 -94.16 1537.38
v -19.3519 -101.4 1535.32
v -19.5564 -100.437 1535.36
v -19.6731 -103.482 1535.2
v -19.0699 -102.329 1534.95
v -19.143 -103.784 1534.9
v -18.7294 -103.978 1534.46
v -18.7591 -103.129 1534.59
v -18.3885 -93.8325 1536.69
v -18.4369 -101.218 1538.83
v -18.4721 -99.9652 1539.43
v -18.3768 -101.601 1534.37
v -18.7794 -96.0039 1538.7
v -18.3594 -95.5319 1538.32
v -18.3147 -95.1299 1532.2
v -17.9865 -94.5125 1531.5
v -18.7706 -94.5209 1532.03
v -17.8542 -104.103 1534.27
v -17.8307 -103.07 1534.21
v -18.5169 -98.3976 1539.42
v -18.6934 -95.8629 1533.04
v -19.2844 -99.5761 1539.53
v -17.9712 -95.106 1537.82
v -16.0876 -93.5321 1532.34
v -16.5112 -93.2786 1533.38
v -16.2398 -94.0186 1531.51
v -16.6115 -103.689 1534.4
v -16.6115 -103.689 1534.4
v -15.7915 -102.423 1534.33
v -16.9306 -94.3362 1531.24
v -19.4059 -94.3401 1532.9
v -17.5126 -92.9978 1534.52
v -18.5853 -92.8427 1535.63
v -20.1193 -102.404 1536.59
v -21.1724 -101.369 1537.25
v -19.5744 -92.9647 1536.18
v -20.5118 -93.2006 1536.44
v -20.5118 -93.2006 1536.44
v -20.4388 -94.0421 1534.15
v -21.1266 -93.7896 1535.17
v -21.1266 -93.7896 1535.17
v -21.1334 -93.7504 1536.2
v -21.1334 -93.7504 1536.2
v -22.1684 -98.283 1537
v -22.17 -99.464 1536.94
v -22.17 -99.464 1536.94
v -22.2819 -99.2481 1537.42
v -22.2819 -99.2481 1537.42
v -22.8268 -99.7119 1537.07
v -22.8268 -99.7119 1537.07
v -22.9547 -99.7227 1537.31
v -22.9547 -99.7227 1537.31
v -22.9547 -99.7227 1537.31
v -22.3195 -99.666 1537.94
v -22.3195 -99.666 1537.94
v -23.1831 -100.041 1537
v -23.1831 -100.041 1537
v -23.1831 -100.041 1537
v -22.6765 -100.6 1537.18
v -23.5355 -99.709 1536.97
v -23.5355 -99.709 1536.97
v -22.2688 -97.2088 1538.09
v -21.4281 -94.3094 1537.09
v -19.6731 -103.482 1535.2
v -19.6731 -103.482 1535.2
v -19.143 -103.784 1534.9
v -18.7294 -103.978 1534.46
v -18.7294 -103.978 1534.46
v -18.7794 -96.0039 1538.7
v -18.3594 -95.5319 1538.32
v -17.9865 -94.5125 1531.5
v -18.7706 -94.5209 1532.03
v -17.8542 -104.103 1534.27
vn 0.290285 -0.810508 0.508735
vn 0.0530873 -0.868686 0.49251
vn 0.0980671 -0.797702 0.595025
vn 0.453339 -0.640851 0.619512
vn 0.377752 -0.538677 0.753081
vn 0.553895 0.5398 0.63389
vn 0.362803 0.4699 0.804716
vn 0.352532 0.628163 0.693637
vn 0.525057 0.0898557 -0.84631
vn 0.255034 -0.351428 -0.900809
vn -0.042187 -0.0819992 -0.995739
vn 0.429587 -0.339474 -0.836787
vn 0.196043 -0.429074 -0.881739
vn -0.0590417 -0.390765 -0.918595
vn 0.658137 -0.22537 0.718376
vn 0.622759 -0.38313 0.682189
vn 0.437424 -0.35521 0.826127
vn 0.562655 -0.184541 0.805831
vn 0.870434 0.463012 0.167228
vn 0.91665 0.385969 -0.103832
vn 0.781091 0.561822 0.272495
vn 0.718087 0.368646 0.590298
vn 0.689107 0.562936 0.456327
vn 0.642159 0.65732 0.394414
vn 0.948205 0.023356 -0.316799
vn 0.9628 0.193997 -0.188101
vn 0.955136 0.25937 -0.142979
vn 0.556207 0.662511 0.50171
vn 0.912099 0.409258 -0.0241455
vn 0.728086 0.61036 0.312012
vn 0.80985 -0.078709 -0.581333
vn 0.579145 0.331516 0.744774
vn 0.826143 -0.0658463 -0.5596
vn -0.266679 0.877655 -0.398252
vn 0.687599 0.0773078 0.721964
vn 0.542538 0.062059 0.837736
vn 0.246922 -0.276146 -0.928856
vn 0.370953 -0.298522 -0.879363
vn 0.105547 -0.219812 -0.969816
vn 0.14713 -0.311548 -0.938771
vn 0.116762 0.00105713 -0.993159
vn 0.673602 -0.382002 -0.63272
vn 0.7271 -0.160689 -0.667462
vn 0.424105 -0.347719 -0.836197
vn 0.824626 0.420707 0.37815
vn 0.915514 0.380193 0.131478
vn 0.837641 0.192478 0.511185
vn 0.928101 0.228655 0.293845
vn 0.83095 0.252226 -0.495887
vn 0.968911 0.209922 -0.130938
vn 0.743824 -0.277452 -0.608068
vn 0.784816 -0.365759 0.500285
vn 0.819236 -0.192872 0.540049
vn 0.925991 -0.190721 0.325831
vn 0.948345 0.0162103 0.316826
vn 0.925194 -0.295606 -0.237979
vn 0.852248 -0.275148 -0.444935
vn 0.962904 -0.129304 -0.236847
vn 0.805368 -0.216847 -0.551688
vn 0.936337 0.0147714 -0.350792
vn 0.972005 -0.226067 0.0640373
vn 0.997817 -0.0604732 0.0265556
vn 0.87787 -0.432558 0.205516
vn 0.817076 -0.0167912 0.576286
vn 0.655326 -0.578571 0.485595
vn 0.811757 -0.582025 0.0479329
vn 0.867508 0.240794 -0.435257
vn 0.0881046 -0.242952 -0.966029
vn 0.494492 -0.0114016 -0.869107
vn 0.991718 0.115779 0.0555951
vn 0.562138 -0.724635 0.398628
vn 0.515167 -0.821613 0.244039
vn -0.200241 -0.127023 -0.971478
vn -0.268578 -0.301986 -0.914697
vn 0.144615 -0.510314 -0.847742
vn -0.363096 -0.270477 -0.89163
vn 0.409693 0.28687 0.865943
vn 0.357143 -0.108833 0.927687
vn 0.2301 -0.898053 0.374907
vn -0.302599 -0.25739 -0.917706
vn -0.444029 -0.19611 -0.874288
vn -0.146479 -0.524578 -0.838667
vn -0.264497 0.875372 -0.40468
vn -0.248828 0.877168 -0.410684
vn -0.270535 0.884781 -0.379438
vn 0.460249 0.716673 0.523975
vn 0.301818 0.121753 0.945559
vn 0.172704 0.31061 0.934717
vn -0.580265 -0.209588 -0.786998
vn -0.454449 -0.292607 -0.841343
vn -0.636922 -0.223841 -0.737716
vn -0.302824 -0.756801 0.579267
vn -0.39324 -0.739049 0.546964
vn -0.211255 -0.81098 0.545603
vn -0.387974 -0.25765 -0.884925
vn -0.73127 -0.190007 -0.655089
vn -0.833832 0.0252049 -0.551443
vn -0.0918123 -0.374989 0.922472
vn -0.25298 -0.709352 0.657892
vn -0.386322 -0.44323 0.80889
vn -0.581097 -0.25633 -0.772413
vn -0.449076 -0.713956 0.537213
vn -0.667388 -0.215971 -0.712706
vn -0.722091 -0.285244 -0.630254
vn -0.781394 -0.12896 -0.610567
vn -0.290996 0.900389 -0.323451
vn -0.434886 0.844473 -0.312634
vn -0.342146 0.892045 -0.295282
vn -0.320891 0.393168 0.861654
vn -0.0596605 0.311961 0.94822
vn -0.216914 0.263037 0.940085
vn -0.671989 -0.253423 -0.69585
vn -0.783835 -0.217865 -0.581496
vn -0.85344 -0.123355 -0.506383
vn -0.467842 0.864226 -0.185035
vn -0.93134 0.362462 -0.0350476
vn -0.926061 0.212823 -0.311636
vn -0.17414 -0.157104 -0.972108
vn -0.831576 -0.11355 -0.54368
vn -0.663578 -0.22864 -0.712311
vn -0.747517 -0.114851 0.654239
vn -0.848081 0.154741 0.506768
vn -0.490253 0.241433 0.837473
vn -0.446233 -0.0750937 0.891761
vn 0.0273364 -0.0889942 -0.995657
vn -0.56816 -0.551968 0.610348
vn -0.64619 -0.424872 0.633974
vn -0.46525 0.812229 -0.351891
vn -0.441067 0.744059 -0.501833
vn -0.552893 0.668522 0.497381
vn -0.552893 0.668522 0.497381
vn -0.356356 0.54683 -0.75762
vn -0.544345 -0.4358 0.716776
vn 0.13968 0.0588577 -0.988446
vn -0.0469382 -0.225478 -0.973117
vn -0.970939 -0.0931881 -0.220438
vn -0.63016 0.344879 0.69567
vn -0.261881 0.141216 0.954713
vn -0.984018 -0.088493 0.154522
vn -0.992042 0.0567964 -0.112371
vn -0.904589 0.307308 0.295433
vn -0.955625 0.251958 0.152637
vn -0.97244 0.159091 -0.170444
vn -0.823368 -0.0780465 -0.562115
vn -0.705462 -0.137669 -0.695248
vn -0.860193 0.0529431 -0.507212
vn -0.680004 0.448798 0.579806
vn -0.858738 0.489122 0.152741
vn -0.31872 0.642308 0.697035
vn -0.0927659 0.498321 0.862015
vn -0.0990131 0.153632 0.983155
vn -0.19769 -0.0464844 0.979162
vn 0.0773843 0.660107 0.747175
vn -0.738177 -0.0326479 -0.673817
vn -0.717766 -0.188257 -0.670352
vn -0.730019 0.137872 -0.669376
vn -0.69509 0.107885 -0.710782
vn -0.0542402 -0.852669 0.519628
vn -0.398828 0.0613118 -0.914974
vn -0.525595 0.0770522 -0.847238
vn 0.318632 0.69805 0.641248
vn 0.0849477 -0.621671 0.778659
vn 0.183643 -0.223458 0.957258
vn -0.599928 -0.0756443 -0.79647
vn 0.113451 0.480718 0.869505
vn 0.304628 0.511359 0.803563
vn -0.527958 -0.521027 -0.670665
vn -0.309666 -0.567834 -0.762674
vn -0.589187 -0.595725 -0.545867
vn -0.0311775 -0.140381 -0.989606
vn -0.276602 -0.0515888 -0.959599
vn 0.0853837 0.117911 0.989347
vn -0.637753 -0.322591 -0.699433
vn -0.0183313 -0.0341113 0.99925
vn -0.764961 0.642349 -0.047134
vn -0.267724 0.878611 -0.395431
vn -0.268191 0.889641 -0.36961
vn -0.243171 0.864132 -0.440618
vn 0.832219 -0.544748 -0.103253
vn 0.303185 -0.920265 0.247368
vn 0.829564 -0.511849 -0.223236
vn -0.242992 0.869949 -0.42912
vn -0.719344 -0.42598 -0.548712
vn 0.58022 0.711243 0.396835
vn -0.275964 0.893343 -0.354657
vn -0.852602 -0.114533 -0.509855
vn -0.389502 -0.701031 0.597365
vn 0.161343 0.71135 0.684069
vn -0.690734 0.609681 0.388813
vn -0.0137215 0.694082 0.719765
vn -0.266691 0.879466 -0.394227
vn -0.308972 0.926558 -0.214541
vn -0.902916 0.429235 -0.0223547
vn -0.877908 0.478304 -0.022417
vn -0.494446 0.754652 0.431304
vn 0.137198 0.0501227 -0.989275
vn -0.381834 0.68801 -0.617126
vn -0.97249 0.0131451 -0.232575
vn -0.552893 0.668522 0.497381
vn -0.971598 -0.0389586 -0.233408
vn 0.13968 0.0588577 -0.988446
vn -0.00209649 0.999037 0.0438323
vn -0.531387 0.810445 -0.246591
vn -0.584682 -0.347503 0.733068
vn -0.00209649 0.999037 0.0438323
vn -0.794711 -0.304107 0.525312
vn -0.982861 -0.106218 -0.150669
vn 0.13968 0.0588577 -0.988446
vn -0.532447 -0.362876 0.764737
vn -0.00631752 -0.252642 -0.967539
vn -0.0641315 -0.297027 -0.952713
vn -0.00209649 0.999037 0.0438323
vn -0.465179 -0.423448 0.777367
vn -0.644356 0.361877 0.673684
vn -0.387576 0.730129 0.562758
vn -0.194942 -0.813013 0.548641
vn -0.556871 -0.814153 -0.164466
vn -0.556871 -0.814153 -0.164466
vn 0.0158855 -0.886069 0.463282
vn -0.556871 -0.814153 -0.164466
vn -0.764961 0.642349 -0.047134
vn -0.764961 0.642349 -0.047134
vn -0.267295 0.867831 -0.418835
vn -0.285384 0.87195 -0.397819
vn 0.121521 -0.911758 0.392339
g grp1
usemtl mtl1
f 3//3 2//2 1//1 
f 3//3 1//1 4//4 
f 3//3 4//4 5//5 
f 8//8 7//7 6//6 
f 11//11 10//10 9//9 
f 14//14 13//13 12//12 
f 17//17 16//16 15//15 
f 15//15 18//18 17//17 
f 21//21 20//20 19//19 
f 23//23 6//6 22//22 
f 24//24 21//21 19//19 
f 27//27 26//26 25//25 
f 28//28 23//23 21//21 
f 30//30 19//19 29//29 
f 27//27 31//31 29//29 
f 27//27 19//19 26//26 
f 29//29 19//19 27//27 
f 31//31 27//27 25//25 
f 22//22 6//6 32//32 
f 25//25 33//33 31//31 
f 34//34 176//176 178//178 
f 34//34 177//177 176//176 
f 24//24 19//19 30//30 
f 28//28 21//21 24//24 
f 32//32 36//36 35//35 
f 35//35 18//18 15//15 
f 39//39 38//38 37//37 
f 39//39 40//40 38//38 
f 11//11 9//9 41//41 
f 42//42 12//12 13//13 
f 44//44 43//43 42//42 
f 45//45 23//23 22//22 
f 46//46 21//21 45//45 
f 48//48 45//45 47//47 
f 20//20 50//50 49//49 
f 45//45 48//48 46//46 
f 12//12 51//51 38//38 
f 54//54 53//53 52//52 
f 54//54 55//55 53//53 
f 181//181 51//51 56//56 
f 58//58 42//42 57//57 
f 42//42 58//58 59//59 
f 60//60 57//57 43//43 
f 60//60 58//58 57//57 
f 59//59 58//58 56//56 
f 62//62 61//61 56//56 
f 58//58 62//62 56//56 
f 62//62 54//54 61//61 
f 59//59 56//56 51//51 
f 56//56 61//61 63//63 
f 63//63 61//61 54//54 
f 54//54 52//52 63//63 
f 62//62 55//55 54//54 
f 64//64 15//15 53//53 
f 47//47 35//35 64//64 
f 55//55 48//48 47//47 
f 47//47 64//64 55//55 
f 64//64 53//53 55//55 
f 52//52 65//65 63//63 
f 63//63 66//66 56//56 
f 53//53 16//16 52//52 
f 65//65 66//66 63//63 
f 56//56 66//66 181//181 
f 59//59 51//51 12//12 
f 57//57 42//42 43//43 
f 26//26 20//20 67//67 
f 33//33 26//26 67//67 
f 13//13 44//44 42//42 
f 40//40 12//12 38//38 
f 13//13 68//68 44//44 
f 68//68 69//69 44//44 
f 41//41 69//69 68//68 
f 9//9 69//69 41//41 
f 43//43 44//44 69//69 
f 49//49 43//43 69//69 
f 69//69 9//9 49//49 
f 43//43 49//49 60//60 
f 58//58 70//70 62//62 
f 70//70 55//55 62//62 
f 50//50 70//70 58//58 
f 50//50 58//58 60//60 
f 48//48 55//55 70//70 
f 46//46 48//48 70//70 
f 70//70 50//50 46//46 
f 46//46 50//50 20//20 
f 49//49 50//50 60//60 
f 20//20 21//21 46//46 
f 49//49 67//67 20//20 
f 22//22 47//47 45//45 
f 67//67 49//49 9//9 
f 23//23 45//45 21//21 
f 20//20 26//26 19//19 
f 22//22 35//35 47//47 
f 53//53 15//15 16//16 
f 65//65 71//71 66//66 
f 52//52 16//16 65//65 
f 12//12 42//42 59//59 
f 16//16 4//4 65//65 
f 72//72 66//66 71//71 
f 72//72 179//179 181//181 
f 181//181 66//66 72//72 
f 68//68 73//73 41//41 
f 1//1 72//72 71//71 
f 65//65 1//1 71//71 
f 4//4 1//1 65//65 
f 64//64 35//35 15//15 
f 32//32 35//35 22//22 
f 25//25 26//26 33//33 
f 9//9 33//33 67//67 
f 9//9 10//10 33//33 
f 31//31 33//33 10//10 
f 23//23 28//28 6//6 
f 35//35 36//36 18//18 
f 5//5 4//4 16//16 
f 14//14 12//12 40//40 
f 74//74 68//68 13//13 
f 31//31 10//10 75//75 
f 73//73 11//11 41//41 
f 74//74 73//73 68//68 
f 76//76 10//10 11//11 
f 6//6 28//28 8//8 
f 77//77 36//36 32//32 
f 78//78 18//18 36//36 
f 182//182 34//34 178//178 
f 17//17 5//5 16//16 
f 72//72 79//79 180//180 
f 80//80 40//40 39//39 
f 80//80 14//14 40//40 
f 74//74 13//13 14//14 
f 81//81 73//73 74//74 
f 76//76 73//73 81//81 
f 82//82 75//75 10//10 
f 83//83 177//177 34//34 
f 85//85 84//84 83//83 
f 78//78 17//17 18//18 
f 86//86 24//24 184//184 
f 85//85 185//185 84//84 
f 77//77 88//88 87//87 
f 89//89 76//76 81//81 
f 89//89 74//74 90//90 
f 72//72 2//2 79//79 
f 89//89 90//90 91//91 
f 94//94 93//93 92//92 
f 96//96 186//186 95//95 
f 186//186 96//96 97//97 
f 100//100 99//99 98//98 
f 95//95 101//101 96//96 
f 94//94 102//102 93//93 
f 105//105 104//104 103//103 
f 108//108 107//107 106//106 
f 111//111 110//110 109//109 
f 101//101 112//112 96//96 
f 114//114 113//113 105//105 
f 192//192 115//115 108//108 
f 194//194 117//117 116//116 
f 117//117 114//114 105//105 
f 119//119 101//101 118//118 
f 119//119 120//120 101//101 
f 123//123 122//122 121//121 
f 123//123 121//121 124//124 
f 125//125 196//196 118//118 
f 126//126 187//187 93//93 
f 127//127 100//100 124//124 
f 129//129 128//128 197//197 
f 131//131 199//199 130//130 
f 126//126 127//127 206//206 
f 203//203 128//128 129//129 
f 129//129 197//197 132//132 
f 204//204 133//133 126//126 
f 208//208 134//134 201//201 
f 212//212 205//205 202//202 
f 213//213 209//209 204//204 
f 204//204 209//209 133//133 
f 210//210 135//135 211//211 
f 206//206 204//204 126//126 
f 187//187 126//126 133//133 
f 210//210 125//125 135//135 
f 207//207 136//136 200//200 
f 102//102 127//127 126//126 
f 211//211 135//135 95//95 
f 95//95 135//135 118//118 
f 135//135 125//125 118//118 
f 95//95 118//118 101//101 
f 109//109 123//123 111//111 
f 126//126 93//93 102//102 
f 100//100 127//127 102//102 
f 109//109 137//137 123//123 
f 123//123 124//124 138//138 
f 121//121 127//127 124//124 
f 121//121 206//206 127//127 
f 122//122 139//139 121//121 
f 136//136 140//140 119//119 
f 139//139 140//140 136//136 
f 122//122 140//140 139//139 
f 143//143 142//142 141//141 
f 142//142 143//143 140//140 
f 140//140 143//143 144//144 
f 140//140 144//144 119//119 
f 119//119 144//144 120//120 
f 146//146 145//145 144//144 
f 145//145 120//120 144//144 
f 143//143 146//146 144//144 
f 122//122 123//123 214//214 
f 140//140 122//122 142//142 
f 121//121 139//139 206//206 
f 139//139 136//136 207//207 
f 200//200 136//136 119//119 
f 200//200 119//119 198//198 
f 120//120 112//112 101//101 
f 105//105 145//145 146//146 
f 146//146 117//117 105//105 
f 141//141 116//116 143//143 
f 143//143 116//116 146//146 
f 116//116 117//117 146//146 
f 141//141 147//147 116//116 
f 147//147 141//141 137//137 
f 141//141 214//214 137//137 
f 137//137 214//214 123//123 
f 147//147 137//137 109//109 
f 147//147 148//148 116//116 
f 148//148 194//194 116//116 
f 193//193 117//117 194//194 
f 147//147 149//149 215//215 
f 149//149 147//147 109//109 
f 215//215 149//149 195//195 
f 149//149 109//109 150//150 
f 123//123 138//138 111//111 
f 111//111 138//138 151//151 
f 191//191 192//192 108//108 
f 195//195 149//149 189//189 
f 138//138 124//124 152//152 
f 152//152 124//124 100//100 
f 103//103 120//120 145//145 
f 105//105 103//103 145//145 
f 191//191 108//108 85//85 
f 115//115 107//107 108//108 
f 149//149 150//150 153//153 
f 138//138 152//152 151//151 
f 93//93 187//187 92//92 
f 190//190 149//149 153//153 
f 102//102 99//99 100//100 
f 102//102 94//94 99//99 
f 155//155 154//154 96//96 
f 112//112 155//155 96//96 
f 157//157 156//156 97//97 
f 216//216 158//158 94//94 
f 156//156 160//160 159//159 
f 86//86 188//188 161//161 
f 163//163 98//98 162//162 
f 154//154 164//164 157//157 
f 7//7 166//166 165//165 
f 169//169 168//168 167//167 
f 86//86 161//161 28//28 
f 163//163 162//162 17//17 
f 3//3 162//162 94//94 
f 3//3 94//94 2//2 
f 163//163 17//17 78//78 
f 171//171 39//39 170//170 
f 160//160 164//164 171//171 
f 172//172 163//163 78//78 
f 103//103 173//173 89//89 
f 91//91 103//103 89//89 
f 80//80 90//90 14//14 
f 91//91 164//164 155//155 
f 99//99 94//94 162//162 
f 223//223 224//224 34//34 
f 155//155 112//112 91//91 
f 103//103 91//91 112//112 
f 219//219 2//2 158//158 
f 94//94 158//158 2//2 
f 172//172 174//174 163//163 
f 151//151 174//174 172//172 
f 110//110 172//172 88//88 
f 224//224 83//83 34//34 
f 164//164 91//91 80//80 
f 91//91 90//90 80//80 
f 173//173 167//167 76//76 
f 161//161 153//153 8//8 
f 165//165 110//110 88//88 
f 2//2 219//219 225//225 
f 159//159 171//171 170//170 
f 160//160 157//157 164//164 
f 175//175 221//221 222//222 
f 167//167 173//173 183//183 
f 169//169 167//167 183//183 
f 106//106 185//185 85//85 
f 161//161 188//188 153//153 
f 153//153 165//165 8//8 
f 163//163 174//174 98//98 
f 217//217 220//220 218//218 
f 173//173 103//103 104//104 
f 108//108 106//106 85//85 
f 98//98 99//99 162//162 
f 157//157 160//160 156//156 
f 110//110 151//151 172//172 
f 165//165 150//150 110//110 
f 104//104 183//183 173//173 
f 174//174 151//151 152//152 
f 186//186 97//97 156//156 
f 94//94 92//92 216//216 
f 190//190 153//153 188//188 
f 191//191 85//85 83//83 
f 120//120 103//103 112//112 
f 105//105 113//113 104//104 
f 104//104 113//113 183//183 
f 153//153 150//150 165//165 
f 109//109 110//110 150//150 
f 110//110 111//111 151//151 
f 174//174 152//152 98//98 
f 152//152 100//100 98//98 
f 96//96 154//154 97//97 
f 97//97 154//154 157//157 
f 159//159 160//160 171//171 
f 155//155 164//164 154//154 
f 2//2 225//225 79//79 
f 162//162 3//3 5//5 
f 17//17 162//162 5//5 
f 79//79 225//225 180//180 
f 170//170 39//39 37//37 
f 89//89 173//173 76//76 
f 86//86 28//28 24//24 
f 87//87 172//172 78//78 
f 2//2 72//72 1//1 
f 164//164 80//80 171//171 
f 76//76 167//167 82//82 
f 7//7 8//8 166//166 
f 7//7 165//165 88//88 
f 88//88 172//172 87//87 
f 36//36 77//77 87//87 
f 7//7 88//88 77//77 
f 7//7 77//77 32//32 
f 76//76 11//11 73//73 
f 76//76 82//82 10//10 
f 83//83 84//84 177//177 
f 6//6 7//7 32//32 
f 87//87 78//78 36//36 
f 171//171 80//80 39//39 
f 168//168 75//75 82//82 
f 223//223 34//34 182//182 
f 30//30 184//184 24//24 
f 161//161 8//8 28//28 
f 167//167 168//168 82//82 
f 89//89 81//81 74//74 
f 90//90 74//74 14//14 
