#
# Compatibility version : brain5.0i
# File ID : MM173
# Representation ID : BP58314
# Build-up logic : FMA 3.2.1-inference is_a
# Concept ID : FMA74884
# English name : Uncus
# Bounds(mm): (14.487200,-104.103000,1531.240000)-(23.535500,-92.842700,1539.580000)
# Volume(cm3): 0.257300
#
v 17.58 -99.4788 1533.12
v 16.892 -98.3824 1532.45
v 17.3644 -95.1517 1531.77
v 17.1461 -94.553 1536.61
v 17.0706 -93.6775 1535.16
v 17.9712 -95.106 1537.82
v 17.4013 -98.378 1539.26
v 17.9709 -97.2866 1539.13
v 17.5024 -101.328 1533.84
v 16.9306 -94.3362 1531.24
v 16.9755 -103.306 1534.16
v 17.341 -103.913 1534.56
v 17.7866 -103.108 1534.2
v 16.7852 -102.893 1536.27
v 16.5155 -99.6546 1538.64
v 16.528 -101.97 1537.45
v 17.4799 -100.5 1538.9
v 16.4562 -96.2319 1537.81
v 16.5579 -98.4248 1538.82
v 16.2859 -97.1603 1538.28
v 16.6074 -95.0731 1531.8
v 16.0712 -97.7705 1532.17
v 16.3229 -101.768 1533.87
v 15.7556 -100.614 1533.65
v 16.0725 -102.926 1535.73
v 16.207 -98.988 1532.66
v 16.0323 -94.0016 1533.6
v 15.8663 -95.8876 1536.78
v 15.9307 -96.1998 1532.26
v 15.1057 -99.6298 1537.29
v 15.7972 -99.6765 1538.07
v 14.9703 -100.02 1534.1
v 15.0724 -96.1309 1533.98
v 15.5977 -97.1712 1537.58
v 15.9925 -94.1432 1531.99
v 15.7313 -102.069 1536.54
v 14.7483 -97.721 1533.21
v 16.0699 -97.027 1532.1
v 15.7915 -102.423 1534.33
v 16.3459 -103.522 1534.84
v 22.1106 -95.8244 1537.43
v 19.0415 -102.322 1534.92
v 18.767 -103.181 1534.58
v 15.1269 -97.7839 1532.62
v 19.615 -100.423 1535.43
v 15.1212 -96.8809 1532.76
v 15.6208 -98.1371 1532.41
v 14.7713 -97.7734 1536.5
v 14.8226 -96.7517 1535.37
v 14.6596 -100.743 1535.49
v 14.6331 -98.5852 1536.35
v 14.5233 -97.7245 1535.17
v 15.532 -97.2657 1532.26
v 14.9678 -101.56 1535.59
v 14.7964 -98.3712 1533.34
v 15.0394 -100.956 1534.25
v 18.5853 -92.8427 1535.63
v 18.5104 -98.3603 1539.44
v 18.3314 -99.3497 1533.7
v 18.3204 -101.605 1534.32
v 19.2916 -102.13 1537.38
v 21.9403 -97.9144 1538.77
v 20.3387 -101.132 1536.47
v 21.7651 -95.651 1536.1
v 19.7008 -98.5334 1539.43
v 19.5744 -92.9647 1536.18
v 22.131 -98.9668 1538.73
v 19.4043 -96.8986 1539.09
v 20.2353 -93.4125 1535.45
v 20.4795 -94.0364 1534.18
v 19.3059 -96.9384 1533.98
v 20.8079 -94.7535 1534.84
v 18.3422 -93.8121 1536.68
v 23.1831 -100.041 1537
v 20.9555 -100.079 1539.17
v 21.1724 -101.369 1537.25
v 20.981 -94.3412 1537.54
v 21.1082 -101.098 1537.64
v 20.972 -100.662 1538.49
v 21.5918 -99.1812 1539.1
v 21.1266 -93.7896 1535.17
v 21.4288 -94.257 1537.1
v 22.1104 -97.227 1536.64
v 21.5854 -100.096 1536.98
v 22.4081 -98.6434 1537.76
v 18.7794 -96.0039 1538.7
v 22.2126 -100.456 1537.1
v 19.6731 -103.482 1535.2
v 22.5448 -97.6689 1537.71
v 22.9547 -99.7227 1537.31
v 19.143 -103.784 1534.9
v 19.2753 -99.6261 1539.56
v 18.7706 -94.5209 1532.03
v 19.5879 -100.46 1539.39
v 22.5176 -98.3101 1538.16
v 22.2819 -99.2481 1537.42
v 21.7535 -95.1449 1537.65
v 21.8807 -94.9234 1536.8
v 22.1684 -98.283 1537
v 22.8268 -99.7119 1537.07
v 21.2097 -98.4765 1539.15
v 21.8268 -96.5291 1538.2
v 15.6654 -102.668 1535.27
v 15.1606 -99.102 1533.38
v 16.0876 -93.5321 1532.34
v 15.9683 -93.809 1532.26
v 16.2398 -94.0186 1531.51
v 16.0367 -95.0011 1532.19
v 15.8128 -98.4048 1538.23
v 16.0838 -100.876 1537.77
v 16.5112 -93.2786 1533.38
v 16.6534 -96.3786 1532.15
v 17.7268 -102.042 1537.93
v 17.7754 -103.229 1535.9
v 16.6115 -103.689 1534.4
v 16.9842 -99.9543 1533.14
v 17.1237 -97.595 1538.98
v 17.3186 -101.498 1538.33
v 17.4444 -96.4206 1538.57
v 19.0962 -93.431 1534.52
v 17.3993 -93.9938 1532.18
v 15.2041 -98.7715 1537.57
v 14.655 -97.2407 1533.86
v 20.6324 -97.3738 1539.08
v 15.6074 -95.853 1532.8
v 21.8839 -99.724 1538.69
v 15.2056 -96.7657 1536.64
v 14.7909 -101.033 1534.85
v 14.5148 -99.3016 1535.64
v 17.5339 -99.3269 1539.31
v 18.6974 -95.8518 1533.05
v 19.3336 -101.371 1535.3
v 18.7294 -103.978 1534.46
v 20.1193 -102.404 1536.59
v 20.3342 -99.4599 1539.44
v 20.1904 -95.4029 1538.37
v 18.4739 -99.9781 1539.47
v 21.0556 -97.6486 1535.72
v 19.7395 -94.8711 1533.65
v 22.6765 -100.6 1537.18
v 21.0708 -95.9246 1538.41
v 21.0516 -100.328 1536.81
v 21.0953 -96.3013 1535.4
v 21.1463 -93.6867 1536.17
v 22.2474 -96.4633 1536.94
v 21.393 -94.2324 1535.78
v 22.2905 -97.2426 1538.13
v 22.4585 -97.9417 1538.38
v 22.1529 -100.32 1537.8
v 23.5355 -99.709 1536.97
v 19.3594 -94.3535 1532.86
v 15.1214 -97.9067 1537.29
v 15.7426 -94.7685 1533.16
v 15.5753 -95.5478 1535.53
v 16.6838 -97.38 1532.17
v 18.3559 -95.5267 1538.33
v 17.5046 -92.9838 1534.52
v 17.7349 -97.9679 1532.85
v 17.2386 -97.6128 1532.42
v 17.9865 -94.5125 1531.5
v 17.5198 -96.2005 1532.34
v 15.2674 -101.043 1536.8
v 14.587 -98.8861 1534.46
v 14.7349 -100.111 1536.33
v 18.3209 -95.1369 1532.19
v 18.4211 -101.248 1538.88
v 17.8542 -104.103 1534.27
v 19.8758 -102.185 1535.93
v 22.17 -99.464 1536.94
v 19.6986 -101.034 1538.94
v 19.7337 -94.1044 1537.38
v 20.5118 -93.2006 1536.44
v 20.1068 -99.0036 1535.38
v 22.3195 -99.666 1537.94
v 17.9712 -95.106 1537.82
v 16.9306 -94.3362 1531.24
v 16.3459 -103.522 1534.84
v 18.5853 -92.8427 1535.63
v 19.5744 -92.9647 1536.18
v 20.4795 -94.0364 1534.18
v 23.1831 -100.041 1537
v 23.1831 -100.041 1537
v 23.1831 -100.041 1537
v 21.1724 -101.369 1537.25
v 21.1266 -93.7896 1535.17
v 21.1266 -93.7896 1535.17
v 21.4288 -94.257 1537.1
v 18.7794 -96.0039 1538.7
v 19.6731 -103.482 1535.2
v 19.6731 -103.482 1535.2
v 22.9547 -99.7227 1537.31
v 22.9547 -99.7227 1537.31
v 22.9547 -99.7227 1537.31
v 19.143 -103.784 1534.9
v 18.7706 -94.5209 1532.03
v 22.2819 -99.2481 1537.42
v 22.2819 -99.2481 1537.42
v 22.8268 -99.7119 1537.07
v 22.8268 -99.7119 1537.07
v 16.0876 -93.5321 1532.34
v 16.0876 -93.5321 1532.34
v 16.2398 -94.0186 1531.51
v 16.5112 -93.2786 1533.38
v 16.6115 -103.689 1534.4
v 16.6115 -103.689 1534.4
v 18.7294 -103.978 1534.46
v 18.7294 -103.978 1534.46
v 20.1193 -102.404 1536.59
v 22.6765 -100.6 1537.18
v 21.1463 -93.6867 1536.17
v 21.1463 -93.6867 1536.17
v 22.2905 -97.2426 1538.13
v 23.5355 -99.709 1536.97
v 23.5355 -99.709 1536.97
v 19.3594 -94.3535 1532.86
v 18.3559 -95.5267 1538.33
v 17.5046 -92.9838 1534.52
v 17.9865 -94.5125 1531.5
v 17.8542 -104.103 1534.27
v 22.17 -99.464 1536.94
v 22.17 -99.464 1536.94
v 20.5118 -93.2006 1536.44
v 20.5118 -93.2006 1536.44
v 22.3195 -99.666 1537.94
v 22.3195 -99.666 1537.94
vn 0.460309 -0.292538 -0.838175
vn 0.277118 -0.295338 -0.91432
vn 0.133278 -0.525957 -0.840003
vn -0.551383 0.665038 0.503688
vn -0.63334 0.667346 0.391829
vn -0.350725 0.627262 0.695366
vn -0.304513 0.124378 0.944353
vn -0.176985 0.313373 0.932992
vn 0.301023 -0.260625 -0.917311
vn -0.153201 -0.501349 -0.851574
vn -0.122291 -0.23434 -0.964432
vn -0.225756 -0.924423 0.307371
vn 0.268741 -0.0576599 -0.961485
vn -0.284823 -0.813059 0.50775
vn -0.563774 -0.196675 0.802171
vn -0.455542 -0.637204 0.621653
vn -0.441625 -0.359016 0.822238
vn -0.552875 0.540069 0.634551
vn -0.5434 0.0624571 0.837147
vn -0.578709 0.331362 0.745182
vn -0.262841 -0.354286 -0.897439
vn -0.0843714 -0.234518 -0.968443
vn -0.160019 -0.311664 -0.936621
vn -0.431406 -0.340138 -0.835581
vn -0.554826 -0.723461 0.410819
vn -0.190106 -0.432792 -0.881221
vn -0.861468 0.481393 0.161657
vn -0.689992 0.562526 0.455495
vn -0.517711 0.103187 -0.84931
vn -0.821153 -0.189369 0.538374
vn -0.657198 -0.229306 0.71799
vn -0.804877 -0.206406 -0.556389
vn -0.911343 0.395104 -0.115525
vn -0.719678 0.366551 0.589664
vn -0.942252 0.0116966 -0.334701
vn -0.652692 -0.58157 0.485561
vn -0.933757 0.00647195 -0.357849
vn -0.103654 0.0188868 -0.994434
vn -0.649319 -0.435019 -0.623813
vn -0.344407 -0.86281 0.370059
vn 0.908098 0.297083 0.295127
vn 0.694867 0.10987 -0.710696
vn 0.523436 0.0741542 -0.848832
vn -0.720811 -0.168252 -0.672401
vn 0.718923 -0.194429 -0.667343
vn -0.821617 0.264638 -0.504888
vn -0.417767 -0.352943 -0.837199
vn -0.926146 0.226307 0.301726
vn -0.914891 0.380678 0.134379
vn -0.972733 -0.219486 0.0749428
vn -0.948315 0.0195704 0.316727
vn -0.991112 0.119954 0.0575202
vn -0.482807 -0.00374344 -0.875719
vn -0.879484 -0.429861 0.204275
vn -0.851793 -0.279037 -0.443382
vn -0.735764 -0.271542 -0.620417
vn -0.451766 0.727422 0.516493
vn -0.0821544 0.122523 0.98906
vn 0.63611 -0.226803 -0.737512
vn 0.594376 -0.0779389 -0.800402
vn 0.221599 -0.815157 0.535176
vn 0.492773 0.243427 0.835415
vn 0.731446 -0.188956 -0.655196
vn 0.858167 0.0542681 -0.510494
vn 0.0991535 0.15053 0.983621
vn 0.285719 0.904931 -0.315381
vn 0.75854 -0.122338 0.64004
vn 0.0547577 0.315268 0.947422
vn 0.329189 0.895308 -0.300095
vn 0.784222 -0.220067 -0.580143
vn 0.665432 -0.214235 -0.715055
vn 0.78262 -0.127076 -0.609391
vn -0.317982 0.701855 0.637406
vn 0.356356 0.54683 -0.75762
vn 0.392653 -0.439628 0.807806
vn 0.378362 -0.251389 -0.890868
vn 0.318197 0.648374 0.691637
vn 0.401959 -0.744622 0.532886
vn 0.457602 -0.718477 0.523823
vn 0.445144 -0.0718209 0.892574
vn 0.858339 -0.112235 -0.500656
vn 0.848449 0.503449 0.163323
vn 0.821169 -0.0883268 -0.563808
vn 0.160088 -0.15282 -0.975201
vn 0.966569 -0.109389 -0.231903
vn -0.117635 0.483727 0.867278
vn 0.0518367 -0.229145 -0.972011
vn 0.735413 0.130617 -0.664911
vn 0.993108 0.0504577 -0.105784
vn 0.552893 0.668522 0.497381
vn 0.061745 -0.856172 0.512989
vn 0.0243219 -0.0279069 0.999315
vn 0.599737 -0.577416 -0.553991
vn 0.0962814 -0.366128 0.92557
vn 0.984231 -0.106594 0.141165
vn 0.46525 0.812229 -0.351891
vn 0.691569 0.440272 0.57262
vn 0.93105 0.363158 -0.0355187
vn 0.747468 -0.109942 -0.655136
vn 0.441067 0.744059 -0.501833
vn 0.260137 0.142508 0.954997
vn 0.633672 0.342202 0.6938
vn -0.811971 -0.58235 0.0396386
vn -0.674696 -0.386086 -0.629066
vn -0.866272 0.479403 0.140517
vn -0.939487 0.300511 -0.164494
vn -0.785948 -0.0499448 -0.616272
vn -0.82769 -0.0671074 -0.557158
vn -0.685999 0.0760374 0.723619
vn -0.622322 -0.37896 0.684912
vn -0.715472 0.630961 0.299979
vn 0.0552402 -0.0766061 -0.99553
vn -0.100928 -0.798128 0.593974
vn -0.0402666 -0.872838 0.486345
vn -0.27256 -0.316245 -0.90868
vn 0.0679793 -0.394724 -0.916281
vn -0.410953 0.283915 0.866319
vn -0.387077 -0.530198 0.754361
vn -0.358693 0.472768 0.804878
vn 0.268371 0.885247 -0.379889
vn 0.267002 0.876986 -0.399507
vn -0.817311 -0.01082 0.576095
vn -0.967609 0.212126 -0.136876
vn 0.216365 0.260484 0.940922
vn -0.860656 0.259116 -0.438327
vn 0.66391 -0.417366 0.620507
vn -0.823955 0.417915 0.382681
vn -0.924207 -0.292746 -0.245238
vn -0.997669 -0.0592526 0.0338444
vn -0.36076 -0.105704 0.926649
vn 0.640526 -0.326617 -0.695017
vn 0.739082 -0.0309514 -0.672904
vn 0.397284 0.0514136 -0.916254
vn 0.315066 -0.757732 0.571468
vn 0.193739 -0.0366707 0.980367
vn 0.0813977 0.495326 0.864885
vn -0.177357 -0.214444 0.960499
vn 0.661659 -0.234587 -0.712163
vn 0.718567 -0.290895 -0.631697
vn 0.555041 -0.440526 0.705597
vn 0.328465 0.388002 0.861142
vn 0.56437 -0.25548 -0.784995
vn 0.702125 -0.137605 -0.698631
vn 0.430531 0.878174 -0.208455
vn 0.972212 0.163643 -0.167404
vn 0.921362 0.220093 -0.320392
vn 0.946163 0.274377 0.171737
vn 0.847005 0.155017 0.508481
vn 0.585248 -0.545322 0.600091
vn -0.13968 0.0588577 -0.988446
vn 0.266955 0.873892 -0.406261
vn -0.836977 0.188888 0.513605
vn -0.962492 0.190947 -0.192738
vn -0.780461 0.563268 0.27131
vn 0.211503 -0.114035 -0.970702
vn -0.296994 0.516338 0.803237
vn 0.247869 0.876218 -0.413284
vn 0.582 -0.201415 -0.78785
vn 0.453529 -0.185744 -0.871671
vn 0.312713 -0.551204 -0.773553
vn 0.365511 -0.275674 -0.889047
vn -0.785561 -0.362826 0.50125
vn -0.962887 -0.128458 -0.237375
vn -0.926767 -0.190906 0.32351
vn 0.530461 -0.519681 -0.669733
vn -0.0901491 -0.620539 0.778977
vn 0.0228463 -0.16956 -0.985255
vn 0.838941 0.0227298 -0.543747
vn -0.0192598 -0.0907842 -0.995684
vn 0.258832 -0.712467 0.652225
vn -0.0837734 0.66457 0.742515
vn 0.401821 0.8662 -0.29705
vn 0.67203 -0.259438 -0.693591
vn 0.552893 0.668522 0.497381
vn 0.764283 0.643269 -0.0455728
vn 0.241643 0.866151 -0.437483
vn -0.806534 -0.529761 -0.262407
vn 0.27552 0.895865 -0.348589
vn -0.155677 0.725233 0.670672
vn 0.271804 0.875587 -0.399338
vn -0.13968 0.0588577 -0.988446
vn 0.532447 -0.362876 0.764737
vn 0.0071874 -0.256004 -0.966649
vn 0.394836 -0.707489 0.586143
vn 0.311046 0.917603 -0.2475
vn 0.891228 0.449092 -0.0634711
vn 0.404734 0.731577 0.548621
vn 0.764283 0.643269 -0.0455728
vn 0.206844 -0.814413 0.542169
vn 0.556871 -0.814153 -0.164466
vn 0.531387 0.810445 -0.246591
vn 0.594562 -0.338485 0.729331
vn 0.00209649 0.999037 0.0438323
vn 0.556871 -0.814153 -0.164466
vn 0.291345 0.869191 -0.39953
vn 0.552893 0.668522 0.497381
vn 0.970685 -0.0418914 -0.236676
vn -0.13968 0.0588577 -0.988446
vn 0.00209649 0.999037 0.0438323
vn -0.785619 0.460033 -0.41373
vn 0.260809 0.880711 -0.395382
vn 0.237594 0.863289 -0.445287
vn 0.267647 0.890742 -0.367347
vn -0.798523 -0.533445 -0.278922
vn -0.315683 -0.941683 0.116518
vn -0.0108864 -0.88986 0.456104
vn 0.556871 -0.814153 -0.164466
vn 0.854755 -0.114615 -0.506219
vn 0.0660709 -0.298609 -0.952086
vn 0.872841 0.487086 -0.0299192
vn 0.478592 0.767858 0.425845
vn 0.630864 0.373265 0.680209
vn 0.00209649 0.999037 0.0438323
vn 0.465179 -0.423448 0.777367
vn 0.721696 -0.426924 -0.544877
vn 0.764283 0.643269 -0.0455728
vn -0.574622 0.719558 0.389931
vn 0.270307 0.862968 -0.426873
vn -0.117206 -0.929695 0.349184
vn 0.381834 0.68801 -0.617126
vn 0.97249 0.0131451 -0.232575
vn 0.657294 0.645563 0.388862
vn 0.0175913 0.714353 0.699564
vn 0.815258 -0.283179 0.505137
vn 0.979345 -0.114717 -0.166504
g grp1
usemtl mtl1
f 14//14 114//114 113//113 
f 16//16 14//14 113//113 
f 118//118 16//16 113//113 
f 18//18 119//119 6//6 
f 29//29 21//21 112//112 
f 24//24 26//26 116//116 
f 31//31 110//110 17//17 
f 17//17 15//15 31//31 
f 27//27 33//33 154//154 
f 34//34 18//18 28//28 
f 27//27 154//154 5//5 
f 35//35 153//153 106//106 
f 154//154 28//28 4//4 
f 105//105 27//27 111//111 
f 200//200 107//107 106//106 
f 153//153 27//27 106//106 
f 106//106 27//27 105//105 
f 35//35 106//106 107//107 
f 20//20 18//18 34//34 
f 107//107 108//108 35//35 
f 202//202 201//201 121//121 
f 201//201 203//203 121//121 
f 111//111 27//27 5//5 
f 5//5 154//154 4//4 
f 109//109 19//19 20//20 
f 31//31 15//15 109//109 
f 115//115 39//39 11//11 
f 39//39 23//23 11//11 
f 38//38 29//29 112//112 
f 26//26 24//24 104//104 
f 104//104 44//44 47//47 
f 34//34 28//28 127//127 
f 127//127 154//154 49//49 
f 152//152 127//127 48//48 
f 46//46 123//123 33//33 
f 49//49 48//48 127//127 
f 39//39 56//56 24//24 
f 162//162 30//30 164//164 
f 30//30 51//51 164//164 
f 128//128 56//56 39//39 
f 55//55 104//104 163//163 
f 32//32 163//163 104//104 
f 44//44 55//55 37//37 
f 55//55 163//163 37//37 
f 128//128 163//163 32//32 
f 128//128 50//50 129//129 
f 128//128 129//129 163//163 
f 50//50 164//164 129//129 
f 56//56 128//128 32//32 
f 54//54 50//50 128//128 
f 164//164 50//50 54//54 
f 54//54 162//162 164//164 
f 164//164 51//51 129//129 
f 30//30 31//31 122//122 
f 122//122 109//109 152//152 
f 152//152 48//48 51//51 
f 51//51 122//122 152//152 
f 51//51 30//30 122//122 
f 54//54 36//36 162//162 
f 128//128 103//103 54//54 
f 162//162 110//110 30//30 
f 54//54 103//103 36//36 
f 39//39 103//103 128//128 
f 24//24 56//56 32//32 
f 44//44 104//104 55//55 
f 125//125 33//33 153//153 
f 125//125 153//153 108//108 
f 104//104 47//47 26//26 
f 39//39 24//24 23//23 
f 47//47 22//22 26//26 
f 47//47 53//53 22//22 
f 22//22 53//53 38//38 
f 38//38 53//53 29//29 
f 53//53 47//47 44//44 
f 53//53 44//44 46//46 
f 46//46 29//29 53//53 
f 37//37 46//46 44//44 
f 129//129 52//52 163//163 
f 129//129 51//51 52//52 
f 163//163 52//52 123//123 
f 37//37 163//163 123//123 
f 52//52 51//51 48//48 
f 52//52 48//48 49//49 
f 49//49 123//123 52//52 
f 33//33 123//123 49//49 
f 37//37 123//123 46//46 
f 49//49 154//154 33//33 
f 33//33 125//125 46//46 
f 127//127 152//152 34//34 
f 29//29 46//46 125//125 
f 154//154 127//127 28//28 
f 27//27 153//153 33//33 
f 152//152 109//109 34//34 
f 110//110 31//31 30//30 
f 103//103 25//25 36//36 
f 36//36 110//110 162//162 
f 32//32 104//104 24//24 
f 36//36 16//16 110//110 
f 25//25 103//103 40//40 
f 39//39 204//204 177//177 
f 177//177 103//103 39//39 
f 38//38 155//155 22//22 
f 25//25 40//40 14//14 
f 25//25 14//14 36//36 
f 36//36 14//14 16//16 
f 31//31 109//109 122//122 
f 34//34 109//109 20//20 
f 108//108 153//153 35//35 
f 125//125 108//108 29//29 
f 108//108 21//21 29//29 
f 21//21 108//108 107//107 
f 18//18 4//4 28//28 
f 15//15 19//19 109//109 
f 110//110 16//16 118//118 
f 23//23 24//24 116//116 
f 26//26 22//22 2//2 
f 10//10 21//21 107//107 
f 38//38 112//112 155//155 
f 22//22 155//155 2//2 
f 112//112 21//21 161//161 
f 6//6 4//4 18//18 
f 20//20 19//19 117//117 
f 19//19 15//15 130//130 
f 202//202 121//121 176//176 
f 110//110 118//118 17//17 
f 205//205 12//12 40//40 
f 11//11 23//23 9//9 
f 23//23 116//116 9//9 
f 116//116 26//26 2//2 
f 2//2 155//155 159//159 
f 159//159 155//155 161//161 
f 21//21 10//10 3//3 
f 121//121 203//203 151//151 
f 151//151 157//157 120//120 
f 15//15 17//17 130//130 
f 217//217 5//5 57//57 
f 157//157 178//178 120//120 
f 7//7 8//8 117//117 
f 159//159 161//161 158//158 
f 1//1 2//2 158//158 
f 12//12 114//114 40//40 
f 59//59 1//1 158//158 
f 134//134 78//78 61//61 
f 76//76 208//208 63//63 
f 168//168 63//63 208//208 
f 94//94 170//170 75//75 
f 63//63 142//142 76//76 
f 78//78 79//79 61//61 
f 71//71 139//139 72//72 
f 66//66 172//172 69//69 
f 141//141 68//68 124//124 
f 63//63 173//173 142//142 
f 72//72 70//70 81//81 
f 69//69 144//144 185//185 
f 98//98 146//146 210//210 
f 72//72 81//81 146//146 
f 84//84 142//142 99//99 
f 142//142 138//138 99//99 
f 67//67 148//148 62//62 
f 80//80 67//67 62//62 
f 84//84 99//99 169//169 
f 78//78 184//184 149//149 
f 80//80 75//75 126//126 
f 220//220 96//96 100//100 
f 90//90 196//196 174//174 
f 224//224 126//126 149//149 
f 100//100 96//96 191//191 
f 74//74 220//220 100//100 
f 149//149 140//140 192//192 
f 198//198 150//150 181//181 
f 199//199 193//193 213//213 
f 192//192 182//182 214//214 
f 140//140 182//182 192//192 
f 209//209 87//87 183//183 
f 149//149 192//192 224//224 
f 140//140 149//149 184//184 
f 87//87 169//169 183//183 
f 197//197 85//85 225//225 
f 149//149 126//126 79//79 
f 76//76 87//87 209//209 
f 84//84 87//87 76//76 
f 84//84 169//169 87//87 
f 142//142 84//84 76//76 
f 124//124 62//62 141//141 
f 79//79 78//78 149//149 
f 79//79 126//126 75//75 
f 62//62 102//102 141//141 
f 101//101 80//80 62//62 
f 80//80 126//126 67//67 
f 126//126 224//224 67//67 
f 67//67 95//95 148//148 
f 99//99 89//89 85//85 
f 85//85 89//89 95//95 
f 95//95 89//89 148//148 
f 41//41 147//147 145//145 
f 89//89 145//145 147//147 
f 83//83 145//145 89//89 
f 99//99 83//83 89//89 
f 138//138 83//83 99//99 
f 83//83 143//143 64//64 
f 83//83 138//138 143//143 
f 83//83 64//64 145//145 
f 212//212 62//62 148//148 
f 147//147 148//148 89//89 
f 224//224 95//95 67//67 
f 225//225 85//85 95//95 
f 99//99 85//85 197//197 
f 221//221 99//99 197//197 
f 142//142 173//173 138//138 
f 64//64 143//143 72//72 
f 72//72 146//146 64//64 
f 145//145 98//98 41//41 
f 64//64 98//98 145//145 
f 64//64 146//146 98//98 
f 98//98 97//97 41//41 
f 102//102 41//41 97//97 
f 102//102 212//212 41//41 
f 62//62 212//212 102//102 
f 141//141 102//102 97//97 
f 98//98 82//82 97//97 
f 98//98 210//210 82//82 
f 210//210 146//146 186//186 
f 187//187 77//77 97//97 
f 141//141 97//97 77//77 
f 211//211 77//77 187//187 
f 136//136 141//141 77//77 
f 124//124 101//101 62//62 
f 65//65 101//101 124//124 
f 69//69 185//185 180//180 
f 222//222 77//77 211//211 
f 135//135 80//80 101//101 
f 75//75 80//80 135//135 
f 143//143 138//138 71//71 
f 143//143 71//71 72//72 
f 120//120 69//69 180//180 
f 69//69 172//172 144//144 
f 171//171 136//136 77//77 
f 65//65 135//135 101//101 
f 134//134 184//184 78//78 
f 171//171 77//77 223//223 
f 75//75 170//170 79//79 
f 170//170 61//61 79//79 
f 63//63 132//132 45//45 
f 63//63 45//45 173//173 
f 168//168 88//88 42//42 
f 61//61 91//91 189//189 
f 133//133 43//43 88//88 
f 73//73 179//179 57//57 
f 166//166 94//94 137//137 
f 42//42 60//60 132//132 
f 86//86 156//156 119//119 
f 165//165 160//160 93//93 
f 4//4 73//73 57//57 
f 17//17 166//166 137//137 
f 61//61 166//166 113//113 
f 114//114 61//61 113//113 
f 130//130 17//17 137//137 
f 167//167 11//11 13//13 
f 13//13 60//60 43//43 
f 130//130 137//137 58//58 
f 158//158 131//131 71//71 
f 158//158 71//71 59//59 
f 116//116 1//1 9//9 
f 45//45 60//60 59//59 
f 166//166 61//61 170//170 
f 121//121 195//195 218//218 
f 59//59 173//173 45//45 
f 173//173 59//59 71//71 
f 91//91 114//114 206//206 
f 114//114 91//91 61//61 
f 137//137 92//92 58//58 
f 58//58 92//92 65//65 
f 8//8 58//58 68//68 
f 121//121 151//151 195//195 
f 9//9 59//59 60//60 
f 9//9 1//1 59//59 
f 161//161 165//165 131//131 
f 6//6 171//171 73//73 
f 8//8 68//68 86//86 
f 219//219 206//206 114//114 
f 167//167 13//13 133//133 
f 60//60 42//42 43//43 
f 216//216 188//188 175//175 
f 215//215 131//131 165//165 
f 215//215 165//165 93//93 
f 120//120 178//178 66//66 
f 171//171 179//179 73//73 
f 6//6 86//86 171//171 
f 94//94 92//92 137//137 
f 194//194 207//207 190//190 
f 139//139 71//71 131//131 
f 120//120 66//66 69//69 
f 166//166 170//170 94//94 
f 88//88 43//43 42//42 
f 58//58 65//65 68//68 
f 68//68 136//136 86//86 
f 131//131 215//215 139//139 
f 135//135 65//65 92//92 
f 88//88 168//168 208//208 
f 189//189 134//134 61//61 
f 179//179 171//171 223//223 
f 151//151 120//120 180//180 
f 173//173 71//71 138//138 
f 139//139 70//70 72//72 
f 215//215 70//70 139//139 
f 86//86 136//136 171//171 
f 136//136 68//68 141//141 
f 65//65 124//124 68//68 
f 94//94 135//135 92//92 
f 94//94 75//75 135//135 
f 168//168 132//132 63//63 
f 42//42 132//132 168//168 
f 13//13 43//43 133//133 
f 132//132 60//60 45//45 
f 12//12 219//219 114//114 
f 118//118 113//113 166//166 
f 118//118 166//166 17//17 
f 205//205 219//219 12//12 
f 115//115 11//11 167//167 
f 161//161 131//131 158//158 
f 5//5 4//4 57//57 
f 130//130 58//58 7//7 
f 14//14 40//40 114//114 
f 13//13 9//9 60//60 
f 3//3 165//165 161//161 
f 156//156 6//6 119//119 
f 8//8 86//86 119//119 
f 7//7 58//58 8//8 
f 7//7 117//117 19//19 
f 117//117 8//8 119//119 
f 20//20 117//117 119//119 
f 155//155 112//112 161//161 
f 21//21 3//3 161//161 
f 203//203 157//157 151//151 
f 20//20 119//119 18//18 
f 19//19 130//130 7//7 
f 11//11 9//9 13//13 
f 3//3 10//10 160//160 
f 176//176 121//121 218//218 
f 5//5 217//217 111//111 
f 4//4 6//6 73//73 
f 3//3 160//160 165//165 
f 2//2 159//159 158//158 
f 116//116 2//2 1//1 
