#
# Compatibility version : brain5.0i
# File ID : MM237
# Representation ID : BP58306
# Build-up logic : FMA 3.2.1-inference is_a
# Concept ID : FMA72730
# English name : Left intermediate short gyrus of insula
# Bounds(mm): (30.791900,-110.163000,1555.010000)-(40.437700,-95.935400,1577.000000)
# Volume(cm3): 1.108400
#
v 32.4049 -99.6981 1570.86
v 37.1279 -102.761 1572.93
v 33.6442 -107.196 1575.66
v 34.4882 -103.916 1576.75
v 37.0659 -106.895 1568.62
v 40.3563 -103.955 1559.26
v 32.6383 -106.221 1576.36
v 38.4232 -98.8877 1567.39
v 36.674 -97.0391 1570.06
v 38.0843 -103.551 1557.31
v 39.6637 -99.8004 1561.1
v 33.6275 -98.7323 1565.56
v 37.5476 -97.1351 1559.21
v 38.1535 -96.7096 1563.53
v 39.5538 -102.233 1566.68
v 33.6398 -96.0024 1568.23
v 38.4795 -102.346 1568.45
v 36.6703 -107.242 1562.84
v 35.9126 -104.248 1575.39
v 31.2341 -105.256 1573.23
v 39.626 -101.598 1560.17
v 34.7349 -97.1709 1573.4
v 36.2475 -96.2034 1566.38
v 39.281 -105.355 1566.82
v 33.999 -109.211 1573.87
v 36.6152 -98.2394 1569.21
v 39.1239 -102.032 1555.96
v 39.1833 -99.8343 1555.14
v 34.5475 -99.0646 1557.92
v 36.4487 -97.436 1572.1
v 40.0119 -103.397 1556.96
v 34.4258 -99.9038 1555.95
v 31.5289 -108.21 1568.77
v 34.8222 -96.0515 1563.67
v 31.8553 -101.107 1575.55
v 39.2623 -97.7486 1561.15
v 33.0607 -108.017 1566.59
v 40.1053 -104.584 1563.97
v 39.7624 -105.367 1559.46
v 36.9305 -99.1205 1571.58
v 39.6044 -99.8123 1555.68
v 36.747 -96.7261 1568.07
v 40.2653 -103.047 1561
v 32.548 -96.8003 1574
v 39.2818 -100.681 1557.72
v 39.3969 -98.7472 1556.77
v 34.4263 -109.536 1569.54
v 36.3543 -98.1284 1556.19
v 36.1605 -99.9904 1573.91
v 32.1615 -104.793 1566.74
v 31.041 -107.381 1575.41
v 36.6773 -109.557 1568.45
v 35.0089 -104.745 1559.81
v 35.2382 -96.8407 1559.15
v 35.9452 -107.745 1572.31
v 38.088 -107.738 1566.02
v 37.1649 -104.964 1572.31
v 33.1672 -103.061 1558.53
v 34.9096 -98.0931 1555.44
v 39.7677 -106.115 1562
v 39.749 -101.387 1564.02
v 32.1045 -98.4469 1574.72
v 32.6972 -99.6086 1575.25
v 32.0934 -104.487 1576.49
v 38.5145 -104.503 1568.25
v 37.1895 -101.131 1569.34
v 37.0225 -108.837 1566.46
v 30.7919 -109.686 1574.7
v 30.9962 -109.529 1573.45
v 39.3063 -100.941 1555.91
v 39.4646 -98.8656 1565.22
v 32.8674 -96.5734 1572.57
v 33.9393 -99.9315 1562
v 31.541 -103.069 1575.83
v 37.914 -106.801 1567.67
v 31.3903 -101.304 1575.35
v 36.4108 -96.2753 1562.42
v 39.4666 -106.273 1565
v 32.2645 -105.851 1562.92
v 34.9687 -96.4938 1570.22
v 35.2538 -102.211 1576
v 36.9066 -107.374 1570.05
v 32.4568 -110.163 1574.22
v 37.1778 -99.5333 1555.16
v 31.1451 -103.807 1575.35
v 31.1591 -105.193 1575.54
v 34.5078 -99.006 1574.74
v 39.9135 -102.129 1556.52
v 33.1564 -103.865 1576.92
v 30.8813 -108.267 1574.05
v 32.7451 -97.5014 1574.41
v 35.1294 -102.38 1557.09
v 33.187 -102.133 1576.43
v 37.2508 -102.916 1570.81
v 32.792 -96.9372 1571.46
v 37.3373 -103.809 1569.59
v 33.438 -106.421 1562.81
v 38.3573 -97.067 1565.88
v 36.3673 -98.3941 1555.01
v 38.306 -107.695 1563.34
v 34.9947 -110.068 1571.52
v 34.4882 -103.916 1576.75
v 37.0659 -106.895 1568.62
v 36.674 -97.0391 1570.06
v 39.6637 -99.8004 1561.1
v 33.6398 -96.0024 1568.23
v 34.7349 -97.1709 1573.4
v 39.1239 -102.032 1555.96
v 39.1239 -102.032 1555.96
v 39.1833 -99.8343 1555.14
v 39.1833 -99.8343 1555.14
v 36.4487 -97.436 1572.1
v 36.4487 -97.436 1572.1
v 40.0119 -103.397 1556.96
v 40.0119 -103.397 1556.96
v 34.4258 -99.9038 1555.95
v 31.5289 -108.21 1568.77
v 34.8222 -96.0515 1563.67
v 39.7624 -105.367 1559.46
v 39.6044 -99.8123 1555.68
v 39.6044 -99.8123 1555.68
v 36.747 -96.7261 1568.07
v 36.747 -96.7261 1568.07
v 32.548 -96.8003 1574
v 32.548 -96.8003 1574
v 32.548 -96.8003 1574
v 39.2818 -100.681 1557.72
v 39.3969 -98.7472 1556.77
v 31.041 -107.381 1575.41
v 36.6773 -109.557 1568.45
v 35.2382 -96.8407 1559.15
v 33.1672 -103.061 1558.53
v 34.9096 -98.0931 1555.44
v 34.9096 -98.0931 1555.44
v 32.1045 -98.4469 1574.72
v 37.0225 -108.837 1566.46
v 37.0225 -108.837 1566.46
v 30.7919 -109.686 1574.7
v 30.7919 -109.686 1574.7
v 30.7919 -109.686 1574.7
v 30.9962 -109.529 1573.45
v 39.3063 -100.941 1555.91
v 39.3063 -100.941 1555.91
v 39.3063 -100.941 1555.91
v 39.3063 -100.941 1555.91
v 32.8674 -96.5734 1572.57
v 31.3903 -101.304 1575.35
v 32.2645 -105.851 1562.92
v 32.4568 -110.163 1574.22
v 31.1451 -103.807 1575.35
v 31.1591 -105.193 1575.54
v 39.9135 -102.129 1556.52
v 33.1564 -103.865 1576.92
v 37.3373 -103.809 1569.59
v 36.3673 -98.3941 1555.01
v 38.306 -107.695 1563.34
v 34.9947 -110.068 1571.52
vn -0.972457 0.181459 -0.146286
vn 0.957743 0.0588983 0.28153
vn 0.448675 -0.459673 0.766415
vn 0.436209 -0.261896 0.86089
vn 0.679521 -0.465532 0.567037
vn 0.98631 -0.144646 -0.0791861
vn -0.0931176 -0.294213 0.951193
vn 0.788581 0.282336 0.546284
vn 0.99759 0.0665719 0.0195438
vn -0.141998 -0.713165 -0.686463
vn 0.997441 0.0676285 -0.0231928
vn -0.955358 0.225402 -0.191011
vn 0.308032 0.920064 -0.242069
vn 0.445633 0.894666 -0.0313604
vn 0.943943 0.0649866 0.323649
vn -0.944312 0.272806 -0.18399
vn 0.745417 0.0754417 0.662316
vn -0.168817 -0.871193 -0.461004
vn 0.808418 -0.159714 0.566526
vn -0.990035 0.0942368 -0.104641
vn 0.963229 0.266147 -0.0368287
vn 0.456665 0.488421 0.743574
vn 0.256303 0.963122 0.0818763
vn 0.872014 -0.295184 0.390458
vn 0.634913 -0.525492 0.566342
vn 0.963292 0.14648 0.224969
vn 0.553382 -0.184737 -0.812183
vn 0.838552 -0.245285 -0.486483
vn -0.951301 0.302984 -0.0568034
vn 0.946938 0.191895 0.257846
vn 0.962186 -0.193868 -0.191344
vn -0.95785 0.280854 -0.0603741
vn -0.99104 0.0745566 -0.110819
vn -0.944208 0.270786 -0.187474
vn -0.380269 0.272736 0.883748
vn 0.810446 0.58466 -0.03674
vn -0.324363 -0.875667 -0.357767
vn 0.984241 -0.126357 0.123709
vn -0.104456 -0.810436 -0.576439
vn 0.983438 0.132764 0.123383
vn 0.75428 -0.316427 -0.575269
vn 0.740313 0.404611 0.536868
vn 0.979315 0.199765 0.0322007
vn -0.962928 0.218744 -0.157863
vn 0.983345 0.165028 -0.0761433
vn 0.980274 0.197251 -0.0124232
vn -0.216139 -0.929163 -0.299902
vn 0.189799 0.934304 -0.301749
vn 0.783352 0.271627 0.559087
vn -0.975997 0.176266 -0.127908
vn -0.995009 0.0690027 0.0720865
vn 0.905635 -0.327445 0.269454
vn -0.239503 -0.767237 -0.594967
vn -0.949562 0.304476 -0.0750063
vn 0.801189 -0.41056 0.435357
vn 0.743101 -0.618499 0.255458
vn 0.953269 -0.188294 0.236268
vn -0.952168 0.299791 -0.0591739
vn -0.960557 0.276237 -0.0319912
vn 0.85178 -0.523213 -0.0268326
vn 0.990814 0.131976 0.0294867
vn -0.968439 0.205031 -0.141734
vn -0.0789151 0.371607 0.92503
vn -0.525981 0.0280402 0.850034
vn 0.748779 -0.148741 0.645915
vn 0.830063 0.122194 0.544118
vn -0.174248 -0.909867 -0.376535
vn -0.997876 0.0391108 -0.0521022
vn -0.989619 -0.0216539 -0.142075
vn 0.562728 -0.131429 -0.816127
vn 0.952593 0.245309 0.179973
vn -0.955157 0.284123 -0.083364
vn -0.954741 0.278034 -0.105668
vn -0.632733 0.138787 0.761831
vn 0.71169 -0.477672 0.515098
vn -0.979047 0.146458 -0.141481
vn 0.167577 0.979743 -0.109641
vn 0.880672 -0.441719 0.171176
vn -0.972664 0.223276 -0.0638246
vn 0.257031 0.948858 0.183313
vn 0.54136 0.267003 0.79727
vn 0.969811 -0.196383 0.144568
vn 0.392951 -0.586142 0.708538
vn -0.180567 -0.330262 -0.926457
vn -0.996711 0.0412754 -0.0697347
vn -0.99887 0.0471237 0.0061435
vn 0.332275 0.440379 0.834062
vn 0.553382 -0.184737 -0.812183
vn -0.234084 -0.0574286 0.970519
vn -0.997636 0.0476472 -0.0495206
vn 0.0865467 0.464301 0.881438
vn -0.243129 -0.577892 -0.779057
vn -0.136358 0.3207 0.937314
vn 0.998181 0.0168299 0.0578945
vn -0.959837 0.265 -0.0921282
vn 0.724015 -0.0912949 0.683715
vn -0.316125 -0.812112 -0.490448
vn 0.705677 0.670612 0.22869
vn 0.263298 0.905948 -0.331561
vn -0.102613 -0.88084 -0.46216
vn 0.705498 -0.547546 0.449963
vn 0.167572 0.291235 0.941861
vn 0.98774 -0.111896 0.108851
vn 0.315695 0.9303 0.18676
vn 0.672161 -0.731502 0.114476
vn 0.128855 0.986799 0.0981055
vn 0.245175 0.945763 0.213121
vn -0.135357 -0.505069 -0.852398
vn 0.906014 -0.169227 -0.387944
vn 0.506016 0.685498 -0.523488
vn -0.0496109 -0.254161 -0.965889
vn 0.587604 0.422168 0.690287
vn 0.313022 0.924569 0.217232
vn -0.070913 -0.708501 -0.702138
vn 0.542406 -0.237501 -0.805847
vn -0.283593 -0.382819 -0.879218
vn -0.371956 -0.864434 -0.338235
vn 0.0731733 0.995634 -0.0579547
vn 0.822375 -0.533922 -0.196536
vn 0.999541 -0.0282799 -0.0108739
vn 0.603152 0.624841 -0.495763
vn 0.997397 -0.0672168 0.0260866
vn 0.354728 0.919894 0.167224
vn 0.217041 0.9555 0.199783
vn 0.307526 0.545235 0.779838
vn -0.237219 0.442165 0.864996
vn 0.672161 -0.731502 0.114476
vn 0.410584 0.831452 -0.374309
vn -0.502165 -0.146564 0.852262
vn -0.151854 -0.943225 -0.295409
vn 0.114273 0.956379 -0.26885
vn -0.319705 -0.669404 -0.670586
vn -0.288709 -0.279099 -0.915833
vn 0.165214 0.947675 -0.273158
vn -0.260396 0.359025 0.896267
vn 0.74338 -0.61752 0.257011
vn 0.985666 -0.142709 0.0899867
vn -0.31602 -0.933716 -0.168243
vn -0.364973 -0.237851 0.900123
vn 0.126156 -0.478588 0.868929
vn -0.308941 -0.91756 -0.250278
vn 0.838552 -0.245285 -0.486483
vn 0.966294 -0.257246 -0.0100073
vn 0.672161 -0.731502 0.114476
vn 0.928067 0.372213 -0.0122006
vn 0.186348 0.963814 0.190622
vn -0.599922 0.198867 0.774949
vn -0.399484 -0.778715 -0.483751
vn -0.258888 -0.943819 -0.205384
vn -0.818902 0.0753251 0.568969
vn -0.752228 0.0343557 0.658006
vn 0.961155 0.272731 -0.0424161
vn 0.133433 0.268497 0.953994
vn 0.994089 -0.0412089 0.100439
vn -0.186516 -0.26059 -0.947262
vn 0.705853 -0.707091 -0.0423555
vn -0.150729 -0.964707 -0.215918
g grp1
usemtl mtl1
f 76//76 20//20 85//85 
f 79//79 73//73 58//58 
f 69//69 90//90 33//33 
f 62//62 44//44 1//1 
f 59//59 32//32 29//29 
f 72//72 1//1 44//44 
f 54//54 29//29 73//73 
f 1//1 50//50 20//20 
f 51//51 86//86 90//90 
f 12//12 73//73 50//50 
f 72//72 16//16 95//95 
f 16//16 12//12 1//1 
f 1//1 72//72 95//95 
f 79//79 50//50 73//73 
f 12//12 50//50 1//1 
f 20//20 90//90 86//86 
f 16//16 34//34 12//12 
f 58//58 73//73 29//29 
f 1//1 95//95 16//16 
f 33//33 50//50 79//79 
f 68//68 51//51 90//90 
f 54//54 73//73 34//34 
f 20//20 76//76 1//1 
f 33//33 90//90 20//20 
f 73//73 12//12 34//34 
f 33//33 20//20 50//50 
f 69//69 68//68 90//90 
f 59//59 29//29 54//54 
f 76//76 62//62 1//1 
f 86//86 85//85 20//20 
f 151//151 64//64 74//74 
f 150//150 74//74 147//147 
f 13//13 77//77 14//14 
f 14//14 36//36 13//13 
f 116//116 84//84 92//92 
f 93//93 35//35 74//74 
f 53//53 18//18 97//97 
f 39//39 100//100 18//18 
f 67//67 18//18 100//100 
f 7//7 4//4 89//89 
f 40//40 26//26 9//9 
f 98//98 42//42 8//8 
f 98//98 8//8 71//71 
f 71//71 36//36 98//98 
f 36//36 11//11 46//46 
f 61//61 21//21 11//11 
f 21//21 45//45 11//11 
f 38//38 6//6 43//43 
f 60//60 6//6 38//38 
f 60//60 38//38 78//78 
f 81//81 49//49 87//87 
f 94//94 40//40 2//2 
f 94//94 26//26 40//40 
f 30//30 40//40 9//9 
f 49//49 2//2 40//40 
f 94//94 2//2 57//57 
f 57//57 55//55 82//82 
f 57//57 19//19 55//55 
f 4//4 19//19 81//81 
f 3//3 55//55 19//19 
f 101//101 52//52 55//55 
f 15//15 71//71 8//8 
f 38//38 43//43 15//15 
f 61//61 71//71 15//15 
f 65//65 15//15 17//17 
f 17//17 15//15 8//8 
f 66//66 17//17 8//8 
f 5//5 75//75 65//65 
f 56//56 5//5 136//136 
f 75//75 5//5 56//56 
f 137//137 103//103 82//82 
f 82//82 52//52 137//137 
f 55//55 52//52 82//82 
f 101//101 55//55 25//25 
f 57//57 2//2 19//19 
f 2//2 49//49 19//19 
f 81//81 19//19 49//49 
f 40//40 30//30 49//49 
f 22//22 49//49 112//112 
f 22//22 87//87 49//49 
f 153//153 102//102 93//93 
f 3//3 19//19 4//4 
f 55//55 3//3 25//25 
f 83//83 101//101 25//25 
f 130//130 157//157 47//47 
f 67//67 130//130 47//47 
f 136//136 156//156 56//56 
f 60//60 56//56 156//156 
f 78//78 56//56 60//60 
f 119//119 6//6 60//60 
f 31//31 6//6 119//119 
f 70//70 88//88 27//27 
f 31//31 152//152 6//6 
f 6//6 152//152 43//43 
f 21//21 61//61 43//43 
f 24//24 78//78 38//38 
f 78//78 24//24 56//56 
f 75//75 56//56 24//24 
f 65//65 75//75 24//24 
f 24//24 15//15 65//65 
f 38//38 15//15 24//24 
f 61//61 15//15 43//43 
f 26//26 8//8 42//42 
f 66//66 65//65 17//17 
f 96//96 65//65 66//66 
f 154//154 94//94 103//103 
f 103//103 94//94 82//82 
f 96//96 5//5 65//65 
f 82//82 94//94 57//57 
f 94//94 66//66 26//26 
f 104//104 80//80 113//113 
f 80//80 107//107 113//113 
f 63//63 87//87 91//91 
f 63//63 93//93 87//87 
f 81//81 87//87 93//93 
f 102//102 81//81 93//93 
f 93//93 63//63 35//35 
f 7//7 3//3 4//4 
f 83//83 25//25 3//3 
f 149//149 47//47 157//157 
f 18//18 67//67 47//47 
f 156//156 119//119 60//60 
f 10//10 114//114 39//39 
f 10//10 108//108 114//114 
f 109//109 28//28 142//142 
f 128//128 110//110 99//99 
f 111//111 84//84 155//155 
f 108//108 84//84 111//111 
f 28//28 41//41 142//142 
f 143//143 120//120 11//11 
f 120//120 46//46 11//11 
f 127//127 144//144 105//105 
f 45//45 21//21 145//145 
f 88//88 115//115 27//27 
f 145//145 21//21 152//152 
f 152//152 21//21 43//43 
f 128//128 13//13 36//36 
f 11//11 71//71 61//61 
f 11//11 36//36 71//71 
f 14//14 98//98 36//36 
f 122//122 9//9 26//26 
f 26//26 66//66 8//8 
f 66//66 94//94 154//154 
f 107//107 80//80 146//146 
f 146//146 124//124 107//107 
f 91//91 22//22 125//125 
f 91//91 87//87 22//22 
f 135//135 63//63 91//91 
f 64//64 7//7 89//89 
f 141//141 149//149 138//138 
f 149//149 141//141 47//47 
f 47//47 141//141 37//37 
f 18//18 47//47 37//37 
f 97//97 18//18 37//37 
f 10//10 39//39 53//53 
f 39//39 18//18 53//53 
f 10//10 92//92 108//108 
f 92//92 84//84 108//108 
f 48//48 13//13 128//128 
f 128//128 99//99 48//48 
f 128//128 121//121 110//110 
f 98//98 14//14 23//23 
f 23//23 123//123 98//98 
f 80//80 104//104 123//123 
f 123//123 23//23 80//80 
f 64//64 93//93 74//74 
f 64//64 89//89 93//93 
f 129//129 139//139 7//7 
f 7//7 140//140 3//3 
f 83//83 3//3 140//140 
f 147//147 35//35 135//135 
f 106//106 146//146 80//80 
f 106//106 80//80 23//23 
f 131//131 77//77 13//13 
f 133//133 155//155 84//84 
f 133//133 84//84 116//116 
f 53//53 132//132 92//92 
f 116//116 92//92 132//132 
f 29//29 32//32 58//58 
f 53//53 92//92 10//10 
f 134//134 48//48 99//99 
f 148//148 132//132 53//53 
f 14//14 77//77 23//23 
f 148//148 53//53 97//97 
f 37//37 148//148 97//97 
f 117//117 148//148 37//37 
f 117//117 37//37 141//141 
f 134//134 131//131 48//48 
f 131//131 13//13 48//48 
f 129//129 7//7 64//64 
f 64//64 151//151 129//129 
f 118//118 77//77 131//131 
f 77//77 118//118 23//23 
f 23//23 118//118 106//106 
f 35//35 63//63 135//135 
f 135//135 91//91 126//126 
f 74//74 35//35 147//147 
f 74//74 150//150 151//151 
