#
# Compatibility version : brain5.0i
# File ID : MM235
# Representation ID : BP58304
# Build-up logic : FMA 3.2.1-inference is_a
# Concept ID : FMA72728
# English name : Left second short gyrus of insula
# Bounds(mm): (31.371100,-99.245900,1549.430100)-(41.369600,-84.890400,1573.700000)
# Volume(cm3): 0.780000
#
v 32.9158 -86.3661 1571.31
v 31.5641 -96.7304 1573.46
v 32.6683 -89.7582 1569.92
v 34.9362 -95.0921 1571.89
v 33.1049 -92.5091 1573.05
v 32.9021 -94.2222 1573.35
v 33.5907 -95.464 1565.79
v 34.9136 -96.4027 1568
v 39.488 -90.4413 1563.74
v 33.3612 -97.0242 1571.87
v 34.3955 -85.9818 1570.5
v 34.206 -97.1948 1572.67
v 34.6409 -85.0749 1567.82
v 35.6359 -97.5678 1554.89
v 38.1388 -95.374 1564.02
v 38.0641 -91.0066 1553.94
v 38.1 -92.9941 1549.43
v 36.1841 -95.8372 1569.12
v 37.2007 -94.6286 1551.3
v 39.7902 -91.7081 1552.88
v 37.6432 -88.6012 1557.47
v 38.6469 -89.0539 1554.72
v 39.6764 -85.729 1561.78
v 40.9564 -95.9243 1551.57
v 40.1924 -98.7742 1556.7
v 36.105 -85.1963 1568.31
v 41.0184 -93.0983 1554.02
v 36.8859 -90.3018 1569.09
v 38.2469 -86.5238 1557.54
v 37.3512 -96.2653 1565.55
v 36.1298 -86.8004 1561.87
v 37.4704 -98.2744 1555.78
v 37.6157 -93.4349 1567.84
v 32.2328 -96.0098 1572.65
v 33.3375 -85.2198 1570.64
v 35.3079 -96.9509 1571.08
v 33.3675 -86.7349 1569.2
v 35.51 -95.7948 1561.86
v 36.0897 -96.8423 1553.48
v 32.3608 -95.1621 1572.97
v 31.3711 -96.193 1572.18
v 32.2378 -95.6199 1568.88
v 40.238 -87.7002 1558.3
v 38.6533 -97.4781 1559.05
v 41.1943 -97.9378 1553.36
v 40.1355 -87.7234 1561.74
v 32.5369 -96.6341 1573.7
v 31.7998 -95.1565 1570.78
v 39.042 -85.4339 1560.46
v 41.1612 -92.7653 1557.64
v 40.9164 -95.6902 1555.39
v 40.9884 -89.9964 1558.48
v 40.6886 -97.9312 1552.8
v 38.421 -85.3223 1565.01
v 32.8776 -92.5095 1572.31
v 33.695 -89.5613 1572.1
v 32.6682 -92.3582 1570.04
v 34.1512 -90.6833 1565.85
v 37.6994 -97.9026 1553.64
v 39.4185 -93.6832 1549.73
v 39.2001 -86.5587 1557.96
v 36.0753 -96.5897 1558.14
v 36.0199 -93.0382 1559.35
v 36.1478 -85.1095 1563.14
v 38.8135 -96.631 1560.8
v 35.4321 -89.2879 1570.76
v 39.597 -94.8462 1559.84
v 37.5933 -84.9485 1564.12
v 37.903 -86.4645 1566.73
v 39.1179 -93.7158 1563.57
v 39.2733 -88.5976 1555.98
v 39.994 -99.2459 1554.85
v 37.6146 -85.4915 1559.68
v 40.8301 -98.6787 1555.07
v 38.5513 -91.2755 1551.39
v 38.9905 -95.798 1551.26
v 32.9158 -86.3661 1571.31
v 31.5641 -96.7304 1573.46
v 33.1049 -92.5091 1573.05
v 32.9021 -94.2222 1573.35
v 33.5907 -95.464 1565.79
v 34.9136 -96.4027 1568
v 34.9136 -96.4027 1568
v 34.206 -97.1948 1572.67
v 34.6409 -85.0749 1567.82
v 35.6359 -97.5678 1554.89
v 35.6359 -97.5678 1554.89
v 38.1 -92.9941 1549.43
v 38.1 -92.9941 1549.43
v 36.1841 -95.8372 1569.12
v 36.1841 -95.8372 1569.12
v 37.2007 -94.6286 1551.3
v 38.6469 -89.0539 1554.72
v 39.6764 -85.729 1561.78
v 40.9564 -95.9243 1551.57
v 40.9564 -95.9243 1551.57
v 40.9564 -95.9243 1551.57
v 40.1924 -98.7742 1556.7
v 40.1924 -98.7742 1556.7
v 36.105 -85.1963 1568.31
v 38.2469 -86.5238 1557.54
v 37.3512 -96.2653 1565.55
v 32.2328 -96.0098 1572.65
v 33.3375 -85.2198 1570.64
v 33.3375 -85.2198 1570.64
v 35.3079 -96.9509 1571.08
v 35.3079 -96.9509 1571.08
v 35.51 -95.7948 1561.86
v 35.51 -95.7948 1561.86
v 36.0897 -96.8423 1553.48
v 36.0897 -96.8423 1553.48
v 36.0897 -96.8423 1553.48
v 31.3711 -96.193 1572.18
v 31.3711 -96.193 1572.18
v 32.2378 -95.6199 1568.88
v 41.1943 -97.9378 1553.36
v 41.1943 -97.9378 1553.36
v 32.5369 -96.6341 1573.7
v 32.5369 -96.6341 1573.7
v 32.5369 -96.6341 1573.7
v 31.7998 -95.1565 1570.78
v 39.042 -85.4339 1560.46
v 40.6886 -97.9312 1552.8
v 40.6886 -97.9312 1552.8
v 38.421 -85.3223 1565.01
v 33.695 -89.5613 1572.1
v 33.695 -89.5613 1572.1
v 39.4185 -93.6832 1549.73
v 36.0753 -96.5897 1558.14
v 36.0753 -96.5897 1558.14
v 36.1478 -85.1095 1563.14
v 38.8135 -96.631 1560.8
v 38.8135 -96.631 1560.8
v 38.8135 -96.631 1560.8
v 39.994 -99.2459 1554.85
v 37.6146 -85.4915 1559.68
v 40.8301 -98.6787 1555.07
v 38.5513 -91.2755 1551.39
vn -0.995103 0.0811584 0.0564197
vn -0.188323 0.895068 0.404213
vn -0.977188 0.0726577 -0.199559
vn 0.763485 -0.00802584 0.645775
vn -0.884446 0.244991 0.397159
vn 0.677663 0.0572445 0.733141
vn -0.925559 0.00433108 -0.378579
vn -0.306499 -0.931436 -0.196176
vn 0.935693 -0.0234496 0.352035
vn -0.216478 -0.955993 -0.198028
vn 0.56306 0.343607 0.751597
vn -0.0818516 -0.992732 0.0882215
vn -0.882837 0.260421 -0.390869
vn -0.871968 0.488693 -0.0291846
vn 0.897228 -0.330888 0.292395
vn -0.910782 0.336453 -0.239324
vn -0.256999 -0.584772 -0.769411
vn 0.548289 -0.808384 -0.214232
vn -0.36528 -0.582783 -0.725902
vn 0.720731 0.538178 -0.436934
vn -0.88968 0.271644 -0.366986
vn -0.883565 0.343308 -0.318517
vn 0.929423 0.365901 0.0478396
vn 0.879452 0.300305 -0.369299
vn -0.206142 -0.916038 0.344064
vn 0.127741 0.986406 0.103372
vn 0.955973 0.211069 -0.203875
vn 0.844816 0.0515738 0.532566
vn 0.36791 0.761425 -0.533736
vn 0.219653 -0.961626 0.164405
vn -0.906038 0.225195 -0.358305
vn -0.374207 -0.925628 0.0564108
vn 0.892548 -0.146665 0.426437
vn -0.961474 0.0420124 0.271665
vn 0.452326 0.487426 0.746871
vn -0.0335013 -0.984366 -0.172921
vn -0.91326 0.219654 -0.343086
vn -0.952412 -0.0892522 -0.291454
vn -0.968006 0.217385 -0.125333
vn -0.906794 0.166906 0.387127
vn -0.386678 -0.877508 -0.283654
vn -0.944474 0.155594 -0.289411
vn 0.848574 0.464332 -0.253608
vn -0.248032 -0.905309 0.344813
vn 0.658045 -0.455374 -0.599676
vn 0.957156 0.157756 0.242826
vn -0.323478 0.81304 0.484074
vn -0.981988 0.188088 0.0179631
vn 0.192625 0.974066 -0.118706
vn 0.972134 -0.147839 0.18193
vn 0.981006 -0.0936119 0.169896
vn 0.989248 0.129118 0.0686776
vn -0.0944048 -0.683755 -0.723579
vn 0.342755 0.936806 0.0700942
vn -0.939742 0.273533 0.205097
vn -0.847001 -0.0765032 0.526057
vn -0.989813 0.142228 0.0064246
vn -0.928964 0.149476 -0.338648
vn -0.35088 -0.758586 -0.549027
vn -0.0128897 -0.585317 -0.810702
vn 0.459196 0.760629 -0.458892
vn -0.419323 -0.866599 0.270509
vn -0.958608 0.101962 -0.265848
vn -0.916301 0.236174 -0.323442
vn -0.280011 -0.952284 -0.121442
vn 0.68224 0.159474 0.713524
vn 0.898854 -0.333476 0.284351
vn 0.123733 0.992154 0.0179096
vn 0.830949 0.193925 0.521457
vn 0.902177 -0.315538 0.29413
vn 0.570464 0.615278 -0.544062
vn -0.301481 -0.936162 -0.180858
vn 0.133617 0.945965 -0.295462
vn 0.498663 -0.853328 -0.152203
vn -0.912438 0.367334 -0.18034
vn -0.156702 -0.60215 -0.782854
vn 0.385403 0.335584 0.859563
vn -0.216522 -0.975214 0.0455576
vn 0.871685 -0.0170335 0.489771
vn -0.77143 0.201182 0.603674
vn -0.377108 -0.912033 -0.161199
vn 0.548289 -0.808384 -0.214232
vn 0.219653 -0.961626 0.164405
vn 0.703686 0.017696 0.710291
vn 0.00893141 0.999134 0.0406343
vn -0.102093 -0.870805 -0.480911
vn -0.469519 -0.82594 0.31205
vn -0.920154 0.374024 -0.115853
vn 0.464955 0.610612 -0.641069
vn 0.893416 -0.259098 0.366982
vn 0.250136 -0.94828 0.195441
vn -0.920495 0.357635 -0.157438
vn 0.618233 0.621345 -0.481371
vn 0.372833 0.927472 0.0281297
vn 0.091741 -0.563343 -0.821114
vn 0.658045 -0.455374 -0.599676
vn 0.999012 0.043759 0.00778917
vn 0.929406 -0.0878002 0.358463
vn 0.525881 -0.835988 0.15676
vn 0.675582 0.425371 0.602202
vn -0.885299 0.269413 -0.379027
vn 0.911638 -0.264105 0.314903
vn -0.432769 0.747949 0.503272
vn 0.0570151 0.995353 0.0776026
vn -0.908629 0.278482 -0.311193
vn 0.548289 -0.808384 -0.214232
vn 0.872686 -0.0387133 0.486745
vn -0.351038 -0.927856 -0.125921
vn -0.230703 -0.926532 0.297179
vn -0.871968 0.488693 -0.0291846
vn -0.324235 -0.878025 -0.352056
vn -0.310098 -0.584393 -0.749883
vn -0.354792 0.805265 0.475049
vn -0.967644 0.0746761 -0.241016
vn -0.339593 -0.914448 -0.220137
vn 0.335487 -0.888364 -0.313463
vn 0.994697 0.0361466 0.0962892
vn -0.881652 0.120566 0.456239
vn -0.0225288 -0.892936 0.449619
vn 0.570041 0.0715014 0.818499
vn -0.415273 0.787315 0.455723
vn 0.754501 0.615433 -0.227971
vn 0.466728 -0.83097 -0.302744
vn 0.658045 -0.455374 -0.599676
vn 0.873132 0.263513 0.410124
vn 0.628264 0.167261 0.759808
vn -0.941543 0.274733 0.194984
vn 0.739858 0.486673 -0.464499
vn -0.996684 0.0118737 -0.0804982
vn -0.871968 0.488693 -0.0291846
vn -0.0290553 0.99532 -0.0921593
vn -0.0822129 -0.893881 0.440702
vn 0.188715 -0.97298 0.133028
vn 0.927368 -0.184626 0.325425
vn 0.572039 -0.817547 -0.0662381
vn -0.869318 0.28809 -0.401609
vn 0.951445 -0.0670287 0.300433
vn 0.632516 0.590782 -0.5009
g grp1
usemtl mtl1
f 40//40 55//55 48//48 
f 40//40 5//5 55//55 
f 57//57 1//1 3//3 
f 35//35 77//77 11//11 
f 37//37 3//3 1//1 
f 57//57 56//56 1//1 
f 77//77 126//126 11//11 
f 55//55 127//127 57//57 
f 37//37 58//58 3//3 
f 57//57 48//48 55//55 
f 10//10 41//41 8//8 
f 47//47 113//113 2//2 
f 42//42 57//57 58//58 
f 7//7 42//42 58//58 
f 115//115 81//81 8//8 
f 118//118 40//40 34//34 
f 78//78 12//12 119//119 
f 10//10 12//12 78//78 
f 38//38 7//7 63//63 
f 120//120 84//84 4//4 
f 39//39 63//63 16//16 
f 19//19 17//17 76//76 
f 6//6 4//4 66//66 
f 6//6 126//126 79//79 
f 10//10 36//36 12//12 
f 108//108 8//8 81//81 
f 82//82 18//18 106//106 
f 44//44 109//109 62//62 
f 39//39 129//129 63//63 
f 92//92 39//39 16//16 
f 10//10 8//8 36//36 
f 126//126 6//6 66//66 
f 58//58 37//37 13//13 
f 107//107 4//4 84//84 
f 62//62 32//32 44//44 
f 17//17 60//60 76//76 
f 63//63 58//58 31//31 
f 64//64 58//58 13//13 
f 88//88 92//92 75//75 
f 107//107 90//90 4//4 
f 33//33 4//4 90//90 
f 108//108 65//65 8//8 
f 109//109 44//44 132//132 
f 32//32 59//59 72//72 
f 89//89 138//138 128//128 
f 63//63 21//21 16//16 
f 16//16 21//21 22//22 
f 85//85 26//26 68//68 
f 26//26 54//54 68//68 
f 131//131 68//68 49//49 
f 73//73 131//131 49//49 
f 29//29 73//73 61//61 
f 71//71 29//29 61//61 
f 20//20 71//71 43//43 
f 49//49 68//68 54//54 
f 122//122 23//23 43//43 
f 46//46 125//125 69//69 
f 46//46 43//43 23//23 
f 94//94 49//49 54//54 
f 131//131 85//85 68//68 
f 31//31 64//64 136//136 
f 92//92 16//16 75//75 
f 21//21 31//31 136//136 
f 136//136 101//101 21//21 
f 100//100 11//11 69//69 
f 11//11 66//66 69//69 
f 64//64 31//31 58//58 
f 100//100 35//35 11//11 
f 126//126 66//66 11//11 
f 83//83 133//133 30//30 
f 128//128 138//138 20//20 
f 93//93 71//71 20//20 
f 33//33 9//9 28//28 
f 15//15 90//90 102//102 
f 72//72 25//25 32//32 
f 20//20 138//138 93//93 
f 20//20 27//27 128//128 
f 24//24 128//128 27//27 
f 76//76 95//95 53//53 
f 123//123 74//74 135//135 
f 15//15 134//134 67//67 
f 72//72 59//59 53//53 
f 76//76 53//53 59//59 
f 32//32 25//25 44//44 
f 76//76 60//60 95//95 
f 15//15 102//102 134//134 
f 15//15 70//70 90//90 
f 90//90 70//70 33//33 
f 70//70 9//9 33//33 
f 67//67 70//70 15//15 
f 67//67 134//134 51//51 
f 67//67 51//51 50//50 
f 27//27 50//50 51//51 
f 67//67 50//50 70//70 
f 52//52 46//46 9//9 
f 27//27 43//43 52//52 
f 27//27 20//20 43//43 
f 45//45 124//124 96//96 
f 123//123 116//116 74//74 
f 25//25 132//132 44//44 
f 97//97 51//51 117//117 
f 137//137 51//51 134//134 
f 117//117 51//51 137//137 
f 137//137 134//134 98//98 
f 97//97 27//27 51//51 
f 50//50 9//9 70//70 
f 50//50 52//52 9//9 
f 27//27 52//52 50//50 
f 135//135 74//74 99//99 
f 9//9 69//69 28//28 
f 71//71 61//61 43//43 
f 4//4 33//33 28//28 
f 28//28 69//69 66//66 
f 46//46 69//69 9//9 
f 52//52 43//43 46//46 
f 46//46 23//23 125//125 
f 122//122 43//43 61//61 
f 73//73 49//49 61//61 
f 100//100 69//69 125//125 
f 93//93 29//29 71//71 
f 21//21 101//101 22//22 
f 75//75 16//16 22//22 
f 83//83 30//30 91//91 
f 28//28 66//66 4//4 
f 104//104 26//26 85//85 
f 21//21 63//63 31//31 
f 7//7 58//58 63//63 
f 129//129 38//38 63//63 
f 14//14 130//130 110//110 
f 111//111 32//32 86//86 
f 111//111 59//59 32//32 
f 87//87 32//32 62//62 
f 112//112 19//19 59//59 
f 19//19 76//76 59//59 
f 118//118 80//80 40//40 
f 58//58 57//57 3//3 
f 4//4 6//6 120//120 
f 113//113 47//47 103//103 
f 113//113 103//103 121//121 
f 115//115 8//8 41//41 
f 48//48 42//42 114//114 
f 42//42 48//48 57//57 
f 48//48 34//34 40//40 
f 41//41 10//10 78//78 
f 55//55 5//5 127//127 
f 37//37 105//105 13//13 
f 1//1 105//105 37//37 
f 40//40 80//80 5//5 
